/* XPM */
static char *b830f51e8ca74af58d3dc15d966ea960[] = {
/* columns rows colors chars-per-pixel */
"16 12 76 1 ",
"  c gray100",
". c gray100",
"X c #FEFDFD",
"o c gray100",
"O c gray100",
"+ c #FDFDFD",
"@ c #FADEDA",
"# c #F4B5AC",
"$ c #FCEEEC",
"% c #FADEDA",
"& c #F29486",
"* c #F28272",
"= c #F3A499",
"- c #FCEFED",
"; c #FADEDA",
": c #F29487",
"> c #F38474",
", c #F38576",
"< c #F18373",
"1 c #F0A297",
"2 c #FBEDEC",
"3 c gray100",
"4 c #F8DDD9",
"5 c #EE9184",
"6 c #EE8171",
"7 c #ED8172",
"8 c #EA8071",
"9 c #E87E6F",
"0 c #E47A6B",
"q c #F0C2BB",
"w c #F6DCD8",
"e c #E68C7F",
"r c #E57B6C",
"t c #E47C6D",
"y c #E37B6C",
"u c #E27A6C",
"i c #E17869",
"p c #E29388",
"a c #F9EBEA",
"s c #F6E7E5",
"d c #E18C7F",
"f c #E17869",
"g c #E17A6B",
"h c #E17A6B",
"j c #E17A6B",
"k c #E07869",
"l c #E19186",
"z c #F5E3E0",
"x c #E8CAC5",
"c c #CF7C6F",
"v c #DE7869",
"b c #E17A6B",
"n c #E17A6B",
"m c #E07869",
"M c #E19185",
"N c #F5E3E0",
"B c #FAF3F2",
"V c #DBAFA8",
"C c #CF7C70",
"Z c #DE7869",
"A c #E17869",
"S c #E19185",
"D c #F4E3E0",
"F c #FAF3F2",
"G c #DBAFA8",
"H c #CE7C6F",
"J c #DE9084",
"K c #F5E2E0",
"L c #F9F0EF",
"P c #DFB6AF",
"I c #EDD4D0",
"U c #FEFDFD",
"Y c gray100",
"T c #FEFCFC",
"R c #FEFCFC",
"E c #FFFEFE",
/* pixels */
"        .Xo   O+",
"        @#$     ",
"       %&*=-    ",
"      ;:>,<12   ",
"    34567890q   ",
"    wertyuipa   ",
"   sdfghjklz    ",
"   xcvbnmMN     ",
"   BVCZASD      ",
"    FGHJK       ",
"     LPIU       ",
"     YTRE       "
};
