/* XPM */
static const char *const odbc1[] = {
/* columns rows colors chars-per-pixel */
"16 17 100 2",
"   c #061504",
".  c #31713F",
"X  c #6A660C",
"o  c #4B4622",
"O  c #484629",
"+  c #7C7C35",
"@  c #474747",
"#  c #484A4A",
"$  c #4B4852",
"%  c #514F51",
"&  c #535353",
"*  c #5D5D51",
"=  c #696943",
"-  c #72745A",
";  c #474777",
":  c #656565",
">  c #6B6A69",
",  c #6E6D6A",
"<  c #707070",
"1  c #737373",
"2  c #7A7A7B",
"3  c #7D7D7B",
"4  c #7F7F7F",
"5  c #827C78",
"6  c #679913",
"7  c #54984F",
"8  c #64955E",
"9  c #608664",
"0  c #7F877E",
"q  c #52A961",
"w  c #62AF6E",
"e  c #898800",
"r  c #979900",
"t  c #9D9E00",
"y  c #A09E00",
"u  c #ABA800",
"i  c #BDBD00",
"p  c #C0BF07",
"a  c #8C8C45",
"s  c #899B7D",
"d  c #71718A",
"f  c #7BB992",
"g  c #4BACB1",
"h  c #79F5FD",
"j  c #878787",
"k  c #8A878A",
"l  c #8C8C8C",
"z  c #95958A",
"x  c #909091",
"c  c #929296",
"v  c #959696",
"b  c #9CA79C",
"n  c #8F8EA3",
"m  c #9D9EA4",
"M  c #9F9FAE",
"N  c #A1A0A1",
"B  c #A0A0A6",
"V  c #A3A4A4",
"C  c #A7A6A7",
"Z  c #AAAAAB",
"A  c #AFACAC",
"S  c #BDAAAA",
"D  c #A3A2B2",
"F  c #AEAEB3",
"G  c #B1B1B1",
"H  c #B4B4B4",
"J  c #B6B6B6",
"K  c #B9B9B8",
"L  c #BABABB",
"P  c #BDBDBE",
"I  c #C39494",
"U  c #C1C1AF",
"Y  c #9991C2",
"T  c #8C8CEB",
"R  c #9393EF",
"E  c #9A98FB",
"W  c #C1C1C2",
"Q  c #C7C7C7",
"!  c #CACACA",
"~  c #CECECE",
"^  c #D5CECF",
"/  c #D2D2D3",
"(  c #D6D6D6",
")  c #D7D7D8",
"_  c #DBDBDA",
"`  c #DDDDDE",
"'  c #D4D4E4",
"]  c #E4DCE6",
"[  c #E0E0E0",
"{  c #E6E6E6",
"}  c #E8E8E8",
"|  c #ECECED",
" . c #F3EAEA",
".. c #F1EEEE",
"X. c #F8F5EB",
"o. c #F1F1F1",
"O. c #FAFAFA",
"+. c #FFF9F9",
"@. c #FBFDFD",
"#. c #FFFFFF",
/* pixels */
"#.#.#.#.#.#.#.#.#.#.#.#.#.#.#.#.",
"#.#.#.#.+.^ Y E R T L / #.#.#.#.",
"#.#.#...g f 7 s X.z j L x { #.#.",
"#.#.#.F h w q . ] 4 | / < J #.#.",
"#.#.#.- r 8 6 y $ 2 ( v 1 U #.#.",
"#.#.#.U u = 5 u O c A S # ! #.#.",
"#.#.#.' + p 3 a * B | > #.#.#.#.",
"#.#.#.X t o i t e D #.! j #.#.#.",
"#.#.#.#.d m n D ; , #.Z #.#.#.#.",
"#.#.#._ P N b 0 C j Z #.#.#.#.#.",
"#.#.#.` l k 9   $ & #.#.#.#.#.#.",
"#.#.#.#.#.#.#.#.#.#.#.#.#.#.#.#.",
"#.#.#.#._ #.{ | #._ #.o.[ #.#.#.",
"#.#.#.~ P P l G o.: Z A ~ O.#.#.",
"#.#.#.W #.L H ( [ @ J W #.O.#.#.",
"#.#.#.@.I  .V P #.j } Q Z #.#.#.",
"#.#.#.#.#.#.#.#.#.#.#.#.#.#.#.#."
};
