/* XPM */
static const char *const composite[] = {
/* columns rows colors chars-per-pixel */
"31 32 5 1",
"  c black",
". c #808080",
"X c #C0C0C0",
"o c #ECE9D8",
"O c gray100",
/* pixels */
"ooo                           o",
"ooo XXXXXXXXXXXXXXXXXXXXXXXXX .",
"                           XX .",
" OOOOOOOOOOOOOOOOOOOOOOOOO .X .",
" O                     OOO .X .",
" O OOOOOOOOOOOOOOOOOOO OOO .X .",
" O                     OOO .X .",
" OOOOOOOOOOOOOOOOOOOOOOOOO .X .",
" OOOOOOOOOOOOOOOOOOOOOOOOO .X .",
" O          OO          OO .X .",
" O OOOOOOOO OO OOOOOOOO OO .X .",
" O          OO OOOOOOOO OO .X .",
" OOOOOOOOOOOOO OOOOOOOO OO .X .",
" OOOOOOOOOOOOO OOOOOOOO OO .X .",
" OOOOOOOOOOOOO OOOOOOOO OO .X .",
" O          OO          OO .X .",
" O OOOOOOOO OOOOOOOOOOOOOO .X .",
" O OOOOOOOO OO          OO .X .",
" O OOOOOOOO OO OOOOOOOO OO .X .",
" O OOOOOOOO OO OOOOOOOO OO .X .",
" O OOOOOOOO OO OOOOOOOO OO .X .",
" O OOOOOOOO OO OOOOOOOO OO .X .",
" O OOOOOOOO OO OOOOOOOO OO .X .",
" O OOOOOOOO OO OOOOOOOO OO .X .",
" O OOOOOOOO OO OOOOOOOO OO .X .",
" O OOOOOOOO OO OOOOOOOO OO .X .",
" O OOOOOOOO OO OOOOOOOO OO .X .",
" O          OO OOOOOOOO OO    .",
" OOOOOOOOOOOOO          OO ....",
" OOOOOOOOOOOOOOOOOOOOOOOOO .ooo",
"                           .ooo",
"oo..........................ooo"
};
