/* XPM */
static const char *const external[] = {
/* columns rows colors chars-per-pixel */
"24 31 5 1",
"  c black",
". c magenta",
"X c #808080",
"o c #ECE9D8",
"O c gray100",
/* pixels */
"               ooooooooo",
" OOOOOOOOOOOO . oooooooo",
" OOOOOOOOOOOO .. ooooooo",
" O  O OO OOOO ... oooooo",
" O OO OO  OOO .... ooooo",
" O OO  O OOOO ..... oooo",
" OOOOOOOOOOOO ...... ooo",
" OOOOOOOOOOOO ....... oo",
" O OO  O OOOO          o",
" O  O OO OOOOOOOOOOOOO X",
" O OO OO  OOOOOOOOOOOO X",
" OOOOOOOOOOOOOOOOOOOOO X",
" OOOOOOOOOOOOOOOOOOOOO X",
" O  O  O  OOO OO OO  O X",
" O OO OOO OOO  O OO OO X",
" O  OO O  OOO OO  O  O X",
" OOOOOOOOOOOOOOOOOOOOO X",
" OOOOOOOOOOOOOOOOOOOOO X",
" OOOO  O OOOOO  O OO O X",
" OOOO OO OOOOO OO OO O X",
" OOOO OO OOOOO OO  O O X",
" OOOOOOOOOOOOOOOOOOOOO X",
" OOOOOOOOOOOOOOOOOOOOO X",
" O  O OO  O OOOO OO  O X",
" O OO OO OO OOOO  O OO X",
" O OO  O OO  OOO OO  O X",
" OOOOOOOOOOOOOOOOOOOOO X",
" OOOOOOOOOOOOOOOOOOOOO X",
" OOOOOOOOOOOOOOOOOOOOO X",
"                       X",
"oXXXXXXXXXXXXXXXXXXXXXXX"
};
