/* XPM */
static const char *const graph[] = {
/* columns rows colors chars-per-pixel */
"32 32 4 1",
"  c black",
". c red",
"X c blue",
"o c #C0C0C0",
/* pixels */
"oooooooooooooooooooooooooooooooo",
"oooooooooooooooooooooooooooooooo",
"oo oooooooooooooooXXoooooooooooo",
"oo oooooooooooooo XX   ooooooooo",
"o   ooooooooooo  oooooo    XXooo",
"oo oooooooXXo  ooooooooooooXXooo",
"oo oooooo XX ooooooooooooooooooo",
"oo oooooo oooooooooooooooooooooo",
"oo ooooo ooooooooooooooooooooooo",
"o   oooo ooooooooooooooooooooooo",
"oo oooo oooooooooooooooooooooooo",
"oo oooo oo..oooooooooooooooooooo",
"oo ooo oo .. ooooooooooooooooooo",
"oo ooo oo oo ooooooooooooooooooo",
"o   o oo oooo ooooooooooooo..ooo",
"oo o ooo oooo oooooooooooo ..ooo",
"ooXXooo oooooo oooooooooo oooooo",
"ooXXooo oooooo ooooooooo ooooooo",
"oo ooo oooooooo ooooooo oooooooo",
"o   o ooooooooo ooooooo oooooooo",
"oo.. ooooooooooo ooooo ooooooooo",
"oo..oooooooooooo oooo oooooooooo",
"oo oooooooooooooo .. ooooooooooo",
"oo ooooooooooooooo..oooooooooooo",
"o   oooooooooooooooooooooooooooo",
"oo ooooooooooooooooooooooooooooo",
"oo ooooooooooooooooooooooooooooo",
"oo ooooooooooooooooooooooooooooo",
"oo oooo oooo oooo oooo oooo oooo",
"oo                            oo",
"ooooooo oooo oooo oooo oooo oooo",
"oooooooooooooooooooooooooooooooo"
};
