/* XPM */
static const char *const ole[] = {
/* columns rows colors chars-per-pixel */
"32 32 8 1",
"  c black",
". c red",
"X c #008000",
"o c #808000",
"O c yellow",
"+ c blue",
"@ c #808080",
"# c gray100",
/* pixels */
"             ..........         ",
"            .............       ",
"           ................     ",
"           ...........  ....    ",
"          ..............  ...   ",
"    +     ...............  ...  ",
"   ++     ..........  ....  ... ",
"  ++      ............ ....  .. ",
"  ++  +    ...........  ...   ..",
" ++  ++     ....     ...  ..   .",
"+++  +        OOOO    ..   .    ",
"+++ +@@ ++  OO@OOOOO   @@@@@.   ",
"+++ @##@++ OO@#@OOOOO @#####@   ",
"+++@#@@#@+ OO@#@OOOOO @#@@@@    ",
"++@#@+ @#@OOO@#@OOOOOO@#@XXXXX  ",
"++@#@+ @#@OOO@#@OOOOOO@#@@@@XXX ",
"++@#@+ @#@OOO@#@OOOOOO@#####@XX ",
"++@#@+ @#@ OO@#@OOOOO @#@@@@XXXX",
"++@#@++@#@ OO@#@OOOOO @#@XXXXXXX",
"+++@#@@#@++ O@#@@@@O  @#@@@@XXXX",
" +++@##@+++++@#####@ X@#####@XXX",
" ++++@@+++++++@@@@@ XXX@@@@@XXXo",
"  ++++++++++++    XXXX XXXXXXXX ",
"   +++++++++++ XXXXXX XXXXXXXXX ",
"    ++++++++++  XXX   XXXXXXXX  ",
"     ++++++++        XXXX XXX   ",
"      ++++++       XXXXX XXXX   ",
"                XXXX   XXXX     ",
"                      XXXXX     ",
"                    XXXXXX      ",
"                 XXXXXXX        ",
"              XXXXXXXX          "
};
