/* XPM */
static const char *const query[] = {
/* columns rows colors chars-per-pixel */
"30 30 100 2 ",
"   c black",
".  c #060606",
"X  c #000808",
"o  c #0C0C0C",
"O  c gray6",
"+  c #001010",
"@  c #001414",
"#  c #001C1C",
"$  c gray7",
"%  c #181818",
"&  c #1D1D1D",
"*  c #1E1E1E",
"=  c #002020",
"-  c #202020",
";  c gray14",
":  c #282828",
">  c #2A2A2A",
",  c #2D2D2D",
"<  c #283434",
"1  c gray19",
"2  c #3C3C3C",
"3  c #3F3F3F",
"4  c #000040",
"5  c #242464",
"6  c #363676",
"7  c #004040",
"8  c #005050",
"9  c #007070",
"0  c #404040",
"q  c #484848",
"w  c #4B4B4B",
"e  c gray33",
"r  c #406060",
"t  c #606060",
"y  c DimGray",
"u  c #787878",
"i  c #7C7C7C",
"p  c #7E7E7E",
"a  c #00009F",
"s  c #1212B1",
"d  c #484888",
"f  c #5A5A9A",
"g  c #6C6CAC",
"h  c #0000DF",
"j  c #0030CF",
"k  c #0606E5",
"l  c #0808E7",
"z  c blue",
"x  c #1515F4",
"c  c #1818F7",
"v  c #1212F9",
"b  c #2020FF",
"n  c #204AD5",
"m  c #4848E7",
"M  c #5454F3",
"N  c #7C7CEB",
"B  c #6060FF",
"V  c #008080",
"C  c #108888",
"Z  c #209090",
"A  c #309898",
"S  c #648282",
"D  c #70A8A8",
"F  c #60B0B0",
"G  c #808080",
"H  c #909090",
"J  c #9F9F9F",
"K  c gray66",
"L  c #A8A8B0",
"P  c gray73",
"I  c #BDBDBD",
"U  c #BFBFBF",
"Y  c #9090D0",
"T  c #A8A8C8",
"R  c #B1B1C5",
"E  c #8080FF",
"W  c #9F9FFF",
"Q  c #A8A8FC",
"!  c #80C0C0",
"~  c #9FCFCF",
"^  c #BFDFDF",
"/  c #C0C0C0",
"(  c #C4C4C4",
")  c #C7C7C7",
"_  c #D5D5D5",
"`  c #D8D8D8",
"'  c #D9D9D9",
"]  c #DFDFDF",
"[  c #DBDBF7",
"{  c #DFDFFF",
"}  c #C3E1E1",
"|  c #E0E0E0",
" . c #E7E7E7",
".. c #EFEFEF",
"X. c #E7F3F3",
"o. c #F3F3F3",
"O. c #F7F7F7",
"+. c #F9F9F9",
"@. c #FBFBFB",
"#. c gray100",
/* pixels */
"/ / / / / / / / / / / / / / / / / / / / / / / / / / / / / / ",
"/ / / / / / / / / / / / / / / / / / P K K K K K K K K K I / ",
"/ / / / / / / / / / / / / / / / / / H                   K / ",
"/ / / / / / / / / / / / / / / / P H i 0 < = = = = = X   p H ",
"/ / / / / / / / / / / / / / / / K   0 #.~ V V V V V =       ",
"/ / / / / / / / / / / / / _ ` ` I   : J S 8 8 8 8 8 @       ",
"/ / / / / / / / / / / / / O.#.#.]                           ",
"/ / / / / / / / / / / ` | @.#.| (   - G G G r 7 7 7 +       ",
"/ / / / / / / / / / / ..#.#.#./ K   0 #.#.#.! V V V =       ",
"/ / / / / / / / / '  .+.#.#.#./ K   0 #.} F A V V V =       ",
"/ / / / / / / / /  .#.#.#.#.#./ K   0 #.~ V V V V V =       ",
"/ / / / / / / / /  .#.#.#.#.#./ K   0 #.X.^ F V V V =       ",
"/ / / / / / / / /  .#.#.#.#.#./ K   0 #.#.#.! V V V =       ",
"c c c c c c c c c Q #.#.#.#.#.c x h l b n Z C V V V =       ",
"z z z z z z z z z W #.#.#.#.#.z z z z z j V V V V V =       ",
"z z z z z z z E #.#.#.#.#.#.#.#.{ z z z B #.! V V V =       ",
"c x h k c c c N ] o.#.#.#.#.#.O.[ c v z M ] D 9 9 9 #       ",
"/ K   1 / / / t   J #.#.#.#.#./ / / Y z a                   ",
"H p   ; H H H q   u U ..#.) U H H H g z s 1 1 1 1 1 1 1 1 1 ",
"                      U #.-         4 z m / / / / / / / / / ",
"q 3   $ q q q ;   , q /  .&   q q q 6 z m / / / / / / / / / ",
"/ K   1 / / / t   u / / / %   / / / Y z m / / / / / / / / / ",
"t e   % t t t 1   2 t t t o   t t t d z m / / / / / / / / / ",
"                                    4 z m / / / / / / / / / ",
"u y   * u u u 2   w u u u O   u u u f z m / / / / / / / / / ",
"/ K   1 / / / t   u / / / %   / / / Y z m / / / / / / / / / ",
"1 >   o 1 1 1 %   * 1 1 1 .   1 1 1 5 z m / / / / / / / / / ",
"                                    4 z m / / / / / / / / / ",
"K K K K K K K K K K K K K K K K K K L T R / / / / / / / / / ",
"/ / / / / / / / / / / / / / / / / / / / / / / / / / / / / / "
};
