/* XPM */
static const char *const Quick_Select[] = {
/* columns rows colors chars-per-pixel */
"30 31 7 1",
"  c black",
". c yellow",
"X c #008080",
"o c #808080",
"O c #C0C0C0",
"+ c #ECE9D8",
"@ c gray100",
/* pixels */
"+++++++              +++++++++",
"++++   XXXXXXXXXXXXXX   ++++++",
"++  XXXXXXXXXXXXXXXXXXXX  ++++",
"+ XXXXXXXXXXXXXXXXXXXXXXXX +++",
" XXXXXXXXXXXXXXXXXXXXXXXXXX ++",
"  XXXXXXXXXXXXXXXXXXXXXXXX  ++",
" X  XXXXXXXXXXXXXXXXXXXX  X ++",
" XX@   XXXXXXXXXXXXXX   OXX ++",
" X@@XXX              XXXOXX ++",
" X@@XXXXXXXXXXXXXXXXXXXXOOX ++",
" X@@XXXXXXXXXXXXXXXXXXXXOOX ++",
" X@@XXX               XXOOX ++",
" X@@XXX @@@@@@@@@@@@@ XXOOX ++",
" X@@XXX @oo@ooo@oo@o@ XXOOX ++",
" X@@XXX @@@@@@@@@@  @ XXOOX ++",
" X@@XXX @oo@ooo@o . @ XXOOX ++",
" X@@XXX @@@@@@@@ .. @ XXOOX ++",
" X@@XXX @oo@o o .. o@ XXOOX ++",
" X@@XXX @@@@ . .. @@@ XXOOX ++",
" X@@XXX @oo .... o@o@ XXOOX ++",
" X@@XXX @@ .. . @@@@@ XXOOX ++",
" X@@XXX @ .. @ @oo@o@ XXOOX ++",
" X@@XXX @ . @@@@@@@@@ XXOOX ++",
" X@@XXX @  @ooo@oo@o@ XXOOX o+",
" X@@XXX @@@@@@@@@@@@@ XXOOX oo",
" XX@XXX               XXOXX oo",
"+ X@XXXXXXXXXXXXXXXXXXXXOX ooo",
"++  XXXXXXXXXXXXXXXXXXXX  ooo+",
"++++   XXXXXXXXXXXXXX   ooo+++",
"+++++oo              oooo+++++",
"+++++++ooooooooooooooo++++++++"
};
