/* XPM */
static const char *queryexec[] = {
/* columns rows colors chars-per-pixel */
"16 16 12 1 ",
"  c black",
". c #070707",
"X c #161616",
"o c gray13",
"O c #626262",
"+ c #777777",
"@ c #B7B7B7",
"# c #D2D2D2",
"$ c #D5D5D5",
"% c gray89",
"& c #EFEFEF",
"* c white",
/* pixels */
"****************",
"****&   O*******",
"**         *****",
"*. *******  ****",
"*  *******  ****",
"*           ****",
"*  *&   +** ****",
"*   ************",
"*       *&   ***",
"*  *****&   * **",
"*    ***  *** o*",
"*  @   *  **   *",
"*. ***** ** * $*",
"**      *     **",
"****%   **X #***",
"****************"
};
