/* XPM */
static const char *querycancel[] = {
/* columns rows colors chars-per-pixel */
"16 16 13 1 ",
"  c black",
". c #070707",
"X c #131313",
"o c #161616",
"O c #626262",
"+ c #777777",
"@ c #ED1C24",
"# c #B7B7B7",
"$ c #D2D2D2",
"% c #D5D5D5",
"& c gray89",
"* c #EEEEEE",
"= c white",
/* pixels */
"================",
"====*   O=======",
"==         =====",
"=. @@@@@@@  ====",
"=  @@@@@@@  ====",
"=           ====",
"=  @@   +@@ ====",
"=   @@@@@@@@====",
"=       @@   ===",
"=  @@@@@@   @ X=",
"=    @@@  @@@  =",
"=  #   @  @@@  =",
"=. @@@@@ @@ @ %=",
"==      =     ==",
"====&   ==o $===",
"================"
};
