/* XPM */
static const char *const freeform[] = {
/* columns rows colors chars-per-pixel */
"31 32 7 1",
"  c black",
". c #800000",
"X c navy",
"o c #808080",
"O c #C0C0C0",
"+ c #ECE9D8",
"@ c gray100",
/* pixels */
"+++                           +",
"+++ OOOOOOOOOOOOOOOOOOOOOOOOO +",
"                           +O o",
" @@@@@@@@@@@@@@@@@@@@@@@@@ OO o",
" @XX@X@@ @@@@@@@@@@@@@@@@@ OO o",
" @X@@X@@@@@@@......@@@@@@@ OO o",
" @XX@XX@ @@@@@@@@@@@@@@@@@ OO o",
" @@@@@@@@@@@@@@@@@@@@@@@@@ oO o",
" @@@@@@@@@@@@@@@@@@@@@@@@@ oO o",
" @@@@@@@@@@@@@@@@@@@@@@@@@ oO o",
" @X@X@X@X@ @@@@@@@@@@@@@@@ oO o",
" @XXX@XX@@@@@........@@@@@ oO o",
" @X@X@X@X@ @@@@@@@@@@@@@@@ oO o",
" @@@@@@@@@@@@@@@@@@@@@@@@@ oO o",
" @@@@@@@@@@@@@@@@@@@@@@@@@ oO o",
" @@@@@@@@@@@@@@@@@@@@@@@@@ oO o",
" @X@X@XX@ @@@@@@@@@@@@@@@@ oO o",
" @XX@@X@@@@@@........@@@@@ oO o",
" @X@X@XX@ @@@@@@@@@@@@@@@@ oO o",
" @@@@@@@@@@@@@@@@@@@@@@@@@ oO o",
" @@@@@@@@@@@@@@@@@@@@@@@@@ oO o",
" @@@@@@@@@@@@@@@@@@@@@@@@@ oO o",
" @XXX@XXX@ @@@@@@@@@@@@@@@ oO o",
" @X@X@XXX@@@@..........@@@ oO o",
" @X@X@X@X@ @@@@@@@@@@@@@@@ oO o",
" @@@@@@@@@@@@@@@@@@@@@@@@@ oO o",
" @@@@@@@@@@@@@@@@@@@@@@@@@ oO o",
" @@@@@@@@@@@@@@@@@@@@@@@@@    o",
" @@@@@@@@@@@@@@@@@@@@@@@@@ oooo",
" @@@@@@@@@@@@@@@@@@@@@@@@@ o+++",
"                           o+++",
"++oooooooooooooooooooooooooo+++"
};
