/* XPM */
static const char *const label[] = {
/* columns rows colors chars-per-pixel */
"31 32 5 1",
"  c black",
". c #808080",
"X c #C0C0C0",
"o c #ECE9D8",
"O c gray100",
/* pixels */
"ooo                           o",
"ooo XXXXXXXXXXXXXXXXXXXXXXXXX .",
"                           XX .",
" OOOOOOOOOOOOOOOOOOOOOOOOO .X .",
" OOOOOOOOOOOOOOOOOOOOOOOOO .X .",
" OO          O          OO .X .",
" OO OOOOOOOO O OOOOOOOO OO .X .",
" OO OOOOOOOO O OOOOOOOO OO .X .",
" OO OOOOOOOO O OOOOOOOO OO .X .",
" OO OOOOOOOO O OOOOOOOO OO .X .",
" OO          O          OO .X .",
" OOOOOOOOOOOOOOOOOOOOOOOOO .X .",
" OOOOOOOOOOOOOOOOOOOOOOOOO .X .",
" OO          O          OO .X .",
" OO OOOOOOOO O OOOOOOOO OO .X .",
" OO OOOOOOOO O OOOOOOOO OO .X .",
" OO OOOOOOOO O OOOOOOOO OO .X .",
" OO OOOOOOOO O OOOOOOOO OO .X .",
" OO          O          OO .X .",
" OOOOOOOOOOOOOOOOOOOOOOOOO .X .",
" OOOOOOOOOOOOOOOOOOOOOOOOO .X .",
" OO          O          OO .X .",
" OO OOOOOOOO O OOOOOOOO OO .X .",
" OO OOOOOOOO O OOOOOOOO OO .X .",
" OO OOOOOOOO O OOOOOOOO OO .X .",
" OO OOOOOOOO O OOOOOOOO OO .X .",
" OO          O          OO .X .",
" OOOOOOOOOOOOOOOOOOOOOOOOO    .",
" OOOOOOOOOOOOOOOOOOOOOOOOO ....",
" OOOOOOOOOOOOOOOOOOOOOOOOO .ooo",
"                           .ooo",
"oo..........................ooo"
};
