/* XPM */
static const char *const richtext[] = {
/* columns rows colors chars-per-pixel */
"32 32 5 1",
"  c black",
". c red",
"X c #808080",
"o c #C0C0C0",
"O c gray100",
/* pixels */
"oooooooooooooooooooooooooooooooo",
"oooooooooooooooooooooooooooooooo",
"oo                             o",
"oo                             o",
"oo  OOOOOOOOOOOOOOOOOOOOOOOOOooo",
"oo  OOOOOOOOOOOOOOOOOOO   OOOooo",
"oo  OOOOOOOOOOOOOOOOOO   oOOOooo",
"oo  OOOOOOOOOOOOOOOOOOO  OOOOooo",
"oo  OOOOOOOOOOOOOOOOOOo  OOOOooo",
"oo  OOOOOOOOOOOOOOOOOO  oOOOOooo",
"oo  OOOOOOOOOOOOOOOOOO  OOOOOooo",
"oo  OOOOOOOOOOOOOOOOOo oOOOOOooo",
"oo  OOOOOOOOOOOOOOOOO  OOOOOOooo",
"oo  OOO.......OOOOOOO  OOOOOOooo",
"oo  OO.........OOOOOo oOO   oooo",
"oo  O.....OO....OOOO  OO oO  ooo",
"oo  O....OOO....OOOO  O oOO  ooo",
"oo  OOOOOOO.....OOOo o oOOo  ooo",
"oo  OOOO........OOO   oOOO  oooo",
"oo  OO..........OOO  oOOOo  Oooo",
"oo  O.....OO....OOo  OOOO   Oooo",
"oo  O....OOO....OO  OOOOo  OOooo",
"oo  O....OOO....OO  OOOo  oOOooo",
"oo  O...........OO  OOo  oOOOooo",
"oo  OO..........OO  Oo  oOOOOooo",
"oo  OOO....O....OOo   oOOOOOOooo",
"oo  OOOOOOOOOOOOOOOOOOOOOOOOOooo",
"oo                             o",
"oo                             o",
"oooXXXXXXXXXXXXXXXXXXXXXXXXXXXXX",
"oooooooooooooooooooooooooooooooo",
"oooooooooooooooooooooooooooooooo"
};
