/* XPM */
static const char *properties[] = {
/* columns rows colors chars-per-pixel */
"16 16 33 1 ",
"  c gray38",
". c gray39",
"X c gray42",
"o c #6F6F6F",
"O c #727272",
"+ c #777777",
"@ c #797979",
"# c #7C7C7C",
"$ c #838383",
"% c gray54",
"& c #8E8E8E",
"* c gray58",
"= c #9B9B9B",
"- c gray61",
"; c gray66",
": c gray67",
"> c #ACACAC",
", c #B9B9B9",
"< c gray74",
"1 c #C5C5C5",
"2 c gray79",
"3 c gray81",
"4 c gray83",
"5 c #D7D7D7",
"6 c #DADADA",
"7 c gray89",
"8 c #E6E6E6",
"9 c gray92",
"0 c #ECECEC",
"q c #F3F3F3",
"w c gray96",
"e c #F9F9F9",
"r c white",
/* pixels */
"rrr01:=**-:10rrr",
"rr1#@@@+@@+@#1rr",
"r4@+@+@-:++@+@4r",
"r&++#*+87O*@++&r",
"e@+O2e0rr0e2OO@r",
"8+OO$rr88rr$OO+8",
"6OO-3r2..3r3-OO6",
"4Oo6rr>Oo:rr4oO4",
"6ooX=e8%%8e=Xoo6",
"9oXX*wwwwwq*ooo9",
"q+XX:4:88:4:XX+w",
"e%Xo...12...XX%e",
"r3o..XX..XXXXX3r",
"re,+XX.X...XO,er",
"rre7<-&%&&-<7err",
"rrrrewqqqqwerrrr"
};
