<?xml version="1.0" encoding="UTF-8"?>
<svg width="16" height="16" fill="#000000" version="1.1" viewBox="0 0 9.26 9.26" xml:space="preserve" xmlns="http://www.w3.org/2000/svg" xmlns:cc="http://creativecommons.org/ns#" xmlns:dc="http://purl.org/dc/elements/1.1/" xmlns:rdf="http://www.w3.org/1999/02/22-rdf-syntax-ns#"><metadata><rdf:RDF><cc:Work rdf:about=""><dc:format>image/svg+xml</dc:format><dc:type rdf:resource="http://purl.org/dc/dcmitype/StillImage"/><dc:title/></cc:Work></rdf:RDF></metadata>

<g transform="matrix(.58126 0 0 .61857 -48.788 -75.141)"><path d="m302.01 158.9c-5.1463-0.51458-10.28 1.2683-14.082 4.8902-3.8052 3.6244-5.9879 8.792-5.9879 14.178 0 2.0088 1.5545 3.6375 3.4719 3.6375s3.4719-1.6286 3.4719-3.6375c0-3.3406 1.354-6.5465 3.7149-8.7949 2.3928-2.2795 5.5014-3.3571 8.752-3.0307 5.7286 0.57181 10.216 6.0595 10.216 12.492v80.812c0 0.90597-0.28376 1.7416-0.75826 2.4226-2.5345-23.034-21.26-40.98-43.914-40.98-19.983 0-36.91 13.964-42.363 33.067-3.3303-3.6365-8.009-5.9077-13.188-5.9077-5.1787 0-9.8579 2.2708-13.188 5.9077-5.4532-19.103-22.379-33.067-42.363-33.067-22.654 0-41.38 17.945-43.914 40.98-0.47449-0.68094-0.75826-1.5171-0.75826-2.4226v-80.812c0-6.433 4.4871-11.921 10.216-12.493 3.2525-0.32592 6.3591 0.75174 8.752 3.0307 2.3614 2.2489 3.7154 5.4547 3.7154 8.7954 0 2.0088 1.5545 3.6375 3.4719 3.6375s3.4719-1.6286 3.4719-3.6375c0-5.3854-2.1822-10.553-5.9879-14.178-3.8024-3.6219-8.9348-5.4033-14.082-4.8902-9.2529 0.9244-16.501 9.5932-16.501 19.735v80.812c0 5.0517 3.1539 9.3434 7.5067 10.834 1.5156 24.111 20.718 43.243 44.109 43.243 24.377 0 44.209-20.778 44.209-46.317 0-6.5518 5.088-11.882 11.342-11.882 6.2536 0 11.342 5.3306 11.342 11.882 0 25.539 19.832 46.317 44.209 46.317 23.39 0 42.593-19.132 44.109-43.243 4.3524-1.4909 7.5067-5.7826 7.5067-10.834v-80.812c0-10.142-7.248-18.811-16.501-19.735zm-146.22 147.35c-20.548 0-37.265-17.514-37.265-39.042s16.717-39.042 37.265-39.042 37.265 17.514 37.265 39.042-16.717 39.042-37.265 39.042zm111.1 0c-20.548 0-37.265-17.514-37.265-39.042s16.717-39.042 37.265-39.042 37.265 17.514 37.265 39.042-16.717 39.042-37.265 39.042z" stroke-width=".47383"/><g fill="none" stroke="#f00" stroke-width="24.076"><path d="m121.71 121.49 1.5512 80.312"/><path d="m83.936 161.3 76.022-0.0341"/></g></g></svg>
