/* XPM */
static char *joins[] = {
/* columns rows colors chars-per-pixel */
"16 16 235 2 ",
"   c #FEFDFD",
".  c #FDFDFD",
"X  c #FDFDFD",
"o  c #FDFDFD",
"O  c #FDFDFD",
"+  c #FDFDFD",
"@  c #FDFDFD",
"#  c #FDFDFD",
"$  c #FDFDFD",
"%  c #FDFCFC",
"&  c gray99",
"*  c gray99",
"=  c gray99",
"-  c gray99",
";  c gray99",
":  c #FDFDFD",
">  c #73AED3",
",  c #69A9D1",
"<  c #69AAD1",
"1  c #69AAD1",
"2  c #69AAD1",
"3  c #69AAD1",
"4  c #69AAD1",
"5  c #69A9D1",
"6  c #6BAAD1",
"7  c #CCE0EE",
"8  c #FEFDFD",
"9  c gray99",
"0  c gray99",
"q  c gray99",
"w  c gray99",
"e  c gray99",
"r  c #1D7EBA",
"t  c #1F81BC",
"y  c #1E80BB",
"u  c #1A7EBA",
"i  c #2182BC",
"p  c #1D80BB",
"a  c #1A7EBA",
"s  c #2182BC",
"d  c #197DBA",
"f  c #AACEE4",
"g  c #FFFEFD",
"h  c gray99",
"j  c gray99",
"k  c gray99",
"l  c gray99",
"z  c gray99",
"x  c #5DA0CC",
"c  c #C4DAEA",
"v  c #B4D1E6",
"b  c #99C2DE",
"n  c #CBDEED",
"m  c #B4D0E6",
"M  c #9CC3DE",
"N  c #CCDFED",
"B  c #87B8D8",
"V  c #ACCFE5",
"C  c #FFFEFD",
"Z  c gray99",
"A  c gray99",
"S  c #5EA1CC",
"D  c #C7DBEB",
"F  c #B7D2E6",
"G  c #9DC3DF",
"H  c #B5D7DF",
"J  c #9DC9D8",
"K  c #A0C3DF",
"L  c #CFDFED",
"P  c #89B8D8",
"I  c #ACCFE5",
"U  c #FFFEFD",
"Y  c gray99",
"T  c gray99",
"R  c gray99",
"E  c gray99",
"W  c #589ECB",
"Q  c #B7D3E7",
"!  c #A8CBE3",
"~  c #96C1DD",
"^  c #B1E2D7",
"/  c #85D1C2",
"(  c #A1C9DE",
")  c #BED7E9",
"_  c #7EB3D6",
"`  c #ACCEE4",
"'  c #FFFEFD",
"]  c gray99",
"[  c gray99",
"{  c gray99",
"}  c gray99",
"|  c gray99",
" . c #5CA0CC",
".. c #C3DAEB",
"X. c #B3D1E6",
"o. c #99C2DE",
"O. c #C2DCE9",
"+. c #9BD3D2",
"@. c #9BDBCC",
"#. c #CFE3EC",
"$. c #8DBBDB",
"%. c #B5D3E7",
"&. c #FFFEFD",
"*. c gray99",
"=. c #FBFCFC",
"-. c #FBFCFC",
";. c #FBFCFC",
":. c gray99",
">. c #599FCB",
",. c #C0D8EA",
"<. c #B0CFE5",
"1. c #95C0DD",
"2. c #C6DCEC",
"3. c #BED7E9",
"4. c #90CBCF",
"5. c #86CEC6",
"6. c #6AABCF",
"7. c #559FCC",
"8. c #5FA5CF",
"9. c #5EA5CF",
"0. c #5FA5CF",
"q. c #5FA5CE",
"w. c #5EA5CE",
"e. c #69AAD1",
"r. c #76B0D5",
"t. c #82B7D8",
"y. c #7FB6D7",
"u. c #7BB3D6",
"i. c #83B8D9",
"p. c #82B7D8",
"a. c #87B8D9",
"s. c #76BDC7",
"d. c #70C2C0",
"f. c #2F8BBE",
"g. c #2081BC",
"h. c #2484BE",
"j. c #1D80BB",
"k. c #2182BC",
"l. c #2383BD",
"z. c #1E7FBB",
"x. c #FBFCFC",
"c. c #F9FAFB",
"v. c #F9FBFB",
"b. c #FAFBFB",
"n. c #F9FBFB",
"m. c #FEFDFD",
"M. c #ABCEE4",
"N. c #8FBCDB",
"B. c #AEDDD8",
"V. c #80CBC4",
"C. c #C6DEEA",
"Z. c #C9DEED",
"A. c #99C2DE",
"S. c #B3D1E6",
"D. c #C2DAEA",
"F. c #5DA0CC",
"G. c gray99",
"H. c gray99",
"J. c gray99",
"K. c gray99",
"L. c gray99",
"P. c #FFFEFD",
"I. c #ADCFE4",
"U. c #84B7D8",
"Y. c #CBE0EE",
"T. c #AFDED9",
"R. c #87D0C5",
"E. c #ADD6DE",
"W. c #97C2DE",
"Q. c #B0D1E6",
"!. c #C0D9EA",
"~. c #5CA0CC",
"^. c #FFFEFD",
"/. c #ACCFE4",
"(. c #7FB4D7",
"). c #BFD8EA",
"_. c #9EC5DF",
"`. c #99D4CC",
"'. c #B7E4D8",
"]. c #97C2DE",
"[. c #A9CCE3",
"{. c #B8D4E7",
"}. c #599ECB",
"|. c gray99",
" X c gray99",
".X c #FFFEFD",
"XX c #ACCFE5",
"oX c #82B6D7",
"OX c #C4DBEB",
"+X c #97C1DD",
"@X c #A7CCE0",
"#X c #BEDAE7",
"$X c #95C0DD",
"%X c #ADCEE4",
"&X c #BCD7E9",
"*X c #5A9FCC",
"=X c gray99",
"-X c gray99",
";X c #FFFEFD",
":X c #ABCEE4",
">X c #80B5D7",
",X c #C4DBEB",
"<X c #96C0DD",
"1X c #ABCCE4",
"2X c #C2DAEB",
"3X c #93BFDC",
"4X c #ADCEE4",
"5X c #BCD6E8",
"6X c #599ECB",
"7X c #FEFDFD",
"8X c #CCE0EE",
"9X c #7EB4D6",
"0X c #87B9D9",
"qX c #81B6D8",
"wX c #84B7D8",
"eX c #87B9D9",
"rX c #80B5D7",
"tX c #84B8D8",
"yX c #86B9D9",
"uX c #7EB4D6",
"iX c #FDFDFD",
"pX c gray99",
"aX c gray99",
"sX c gray99",
"dX c #FDFCFC",
"fX c gray99",
"gX c #FBFCFC",
"hX c gray99",
"jX c gray99",
"kX c #FBFCFC",
"lX c gray99",
"zX c #FBFCFC",
"xX c #FBFCFC",
"cX c #FDFDFD",
"vX c gray100",
/* pixels */
"  . X o O + @ # $ % & * = - ; : ",
"> , < 1 2 3 4 5 6 7 8 9 0 q w e ",
"r t y u i p a s d f g h j k l z ",
"x c v b n m M N B V C Z q l A ; ",
"S D F G H J K L P I U Y T R l E ",
"W Q ! ~ ^ / ( ) _ ` ' ] [ { } | ",
" ...X.o.O.+.@.#.$.%.&.*.=.-.;.:.",
">.,.<.1.2.3.4.5.6.7.8.9.0.q.w.e.",
"r.t.y.u.i.p.a.s.d.f.g.h.j.k.l.z.",
"x.c.v.b.n.m.M.N.B.V.C.Z.A.S.D.F.",
"G.H.J.K.L.P.I.U.Y.T.R.E.W.Q.!.~.",
"* 9 0 Z Y ^./.(.)._.`.'.].[.{.}.",
"|.0  Xq l .XXXoXOX+X@X#X$X%X&X*X",
"=Xq k l -X;X:X>X,X<X1X2X3X4X5X6X",
"; w l A  X7X8X9X0XqXwXeXrXtXyXuX",
"iX; pX; aXsXdXfXgXhXjXkXlXzXxXcX"
};
