/* XPM */
static const char *key_f1[] = {
/* columns rows colors chars-per-pixel */
"16 16 62 1 ",
"  c #39AEAE",
". c #3EBBBB",
"X c #40BEBE",
"o c #41BFBF",
"O c #43C0C0",
"+ c #48C1C1",
"@ c #4BC2C2",
"# c #59C7C7",
"$ c #78D1D1",
"% c #79D2D2",
"& c #7AD2D2",
"* c #7DD3D3",
"= c #7FD4D4",
"- c #88CECE",
"; c #83D5D5",
": c #85D6D6",
"> c #86D6D6",
", c #88D7D7",
"< c #89D7D7",
"1 c #8BD6D6",
"2 c #8CD8D8",
"3 c #8DD9D9",
"4 c #8ED9D9",
"5 c #91DADA",
"6 c #93DADA",
"7 c #96DCDC",
"8 c #97DCDC",
"9 c #9ADDDD",
"0 c #B0DFDF",
"q c #A3E0E0",
"w c #A4E0E0",
"e c #AAE2E2",
"r c #AEE4E4",
"t c #AFE4E4",
"y c #B1E5E5",
"u c #B2E5E5",
"i c #B3E5E5",
"p c #B6E6E6",
"a c #B7E7E7",
"s c #B8E7E7",
"d c #B9E7E7",
"f c #BBE8E8",
"g c #BDE9E9",
"h c #C0EAEA",
"j c #C1EAEA",
"k c #C2EBEB",
"l c #C4EBEB",
"z c #C9EDED",
"x c #CFECEC",
"c c #CFEFEF",
"v c #D9F2F2",
"b c #DEF4F4",
"n c #DFF4F4",
"m c #E4F6F6",
"M c #E6F7F7",
"N c #E7F7F7",
"B c #E8F7F7",
"V c #F0FAFA",
"C c #F2FBFB",
"Z c #F4FBFB",
"A c #F5FCFC",
"S c white",
/* pixels */
"SSSSSSs,*ySSSSSS",
"SSSSAcjsyfzZSSSS",
"SSSSN,cSSz$mSSSS",
"SSSSB3rlsq:MSSSS",
"SSSSM;qae8&mSSSS",
"SSSSb#8jd<ovSSSS",
"SSSSCgye9wiVSSSS",
"SSSSSSk9:pSSSSSS",
"SSSSSSu=@6SSSSSS",
"SSSSSSa>+5SSSSSS",
"SSSSSSg5O4SSSSSS",
"SSSSSSh7X2SSSSSS",
"SSSSSSg5.1SSSSSS",
"SSSSSSt% -SSSSSS",
"SSSSSSnz0xSSSSSS",
"SSSSSSSSSSSSSSSS"
};
