/* XPM */
static const char *toolbox[] = {
/* columns rows colors chars-per-pixel */
"118 118 72 1 ",
"  c gray100",
". c #E54A18",
"X c #F3501E",
"o c #BD360C",
"O c #FF8964",
"+ c #CDD7DB",
"@ c #AFBDC3",
"# c #445A64",
"$ c #E44200",
"% c #ED9381",
"& c #BA350B",
"* c #E04719",
"= c #FF825A",
"- c #FFC6B8",
"; c #E36B48",
": c #FF8C66",
"> c #B92F00",
", c #546E7A",
"< c #3A525D",
"1 c #9FA8AC",
"2 c #728188",
"3 c #F54B10",
"4 c #DD7D6A",
"5 c #AAC3CA",
"6 c #D54215",
"7 c #8EA4AE",
"8 c #F7967A",
"9 c #9DAEB7",
"0 c #BC3B1C",
"q c #949BA3",
"w c #4C6875",
"e c #C5D0D4",
"r c #B67C6F",
"t c #476D7B",
"y c #ECA18D",
"u c #CBDEE3",
"i c #E46640",
"p c #DB9384",
"a c #BD2500",
"s c #C17B74",
"d c #AD645C",
"f c #B9C6CB",
"g c #B4A09F",
"h c #B35444",
"j c #8AACB8",
"k c #A6817F",
"l c #FF906F",
"z c #DEE5E7",
"x c #EFF1F2",
"c c #FFE3DC",
"v c #2E5969",
"b c #F2BAAC",
"n c #FEA58C",
"m c #BA6453",
"M c #B97165",
"N c #C05039",
"B c #B2ABAD",
"V c #BA513D",
"C c #B78984",
"Z c #C9BBBA",
"A c #C8A7A3",
"S c #C7928C",
"D c #B0B5B8",
"F c #E75A36",
"G c #F76943",
"H c #F35A2C",
"J c #7D8F98",
"K c #DF745E",
"L c #DFB8AF",
"P c #B83E28",
"I c #D3CCCB",
"U c #EAAC9C",
/* pixels */
"                                                                                                                      ",
"                                                                                                                      ",
"                                                                                                                      ",
"                                                                                                                      ",
"                                                                                                                      ",
"                                                                                                                      ",
"                                                                                                                      ",
"                                                                                                                      ",
"                                                                                                                      ",
"                                                                                                                      ",
"                                                                                                                      ",
"                                                                                                                      ",
"                                                                                                                      ",
"                                                                                                                      ",
"                                                                                                                      ",
"                                                                                                                      ",
"                                                                                                                      ",
"                                                                                                                      ",
"                                            111111111111111111111111111111                 xxzzzxxx                   ",
"                                           2<<<<<<<<<<<<<<<<<<<<<<<<<<<<<<2             z+++++++++++zx                ",
"                                          2w##############################w2          z++++++++++++++++x              ",
"                                         2w,##############################,w2       z++++++++++++++++++z              ",
"                                        2w,,##############################,,w2    x+++++++++++++++++++z               ",
"                                       2w,,,##############################,,,w2  x+++++++++++++++++++z                ",
"                                      Jw,,,,##############################,,,,wJx+++++++++++++++++++x                 ",
"                                     Jw,,,,w222222222222222222222222222222w,,,,,e+++++++++++++++++z                   ",
"                                    z,,,,,,#z                            z#,,,w@+++++++++++++++++z                    ",
"                                    x,,,,,,#z                            z#,,,J+++++++++++++++++x                     ",
"                                    xttttttvz                            zvttw@+++++++++++++++z                       ",
"  c---------------------------------brrrrrrrb----------------------------brrrC++++++++++++++uL---------------------c  ",
" n===================================OOOOOOO==============================OO=bu+++++++++++++U=======================n ",
"-=OOOOOOOOOOOOOOOOOOOOOOOOOOOOOOOOOOOOOOOOOOOOOOOOOOOOOOOOOOOOOOOOOOOOOOOOOO=I++++++++++++++8OOOOOOOOOOOOOOOOOOOOOOO=-",
"lOOOOOOOOOOOOOOOOOOOOOOOOOOOOOOOOOOOOOOOOOOOOOOOOOOOOOOOOOOOOOOOOOOOOOOOOOOOO+++++++++++++++nOOOOOOOOOOOOOOOOOOOOOOOOl",
"OOOOOOOOOOOOOOOOOOOOOOOOOOOOOOOOOOOOOOOOOOOOOOOOOOOOOOOOOOOOOOOOOOOOOOOOOOOO8u++++++++++++++L=OOOOOOOOOOOOOOOOOOOOOOOO",
"OOOOOOOOOOOOOOOOOOOOOOOOOOOOOOOOOOOOOOOOOOOOOOOOOOOOOOOOOOOOOOOOOOOOOOOOOOOOn++++++++++++++++lOOOOOOOOOOOOOOOOOOOOOOOO",
"OOOOOOOOOOOOOOOOOOOOOOOOOOOOOOOOOOOOOOOOOOOOOOOOOOOOOOOOOOOOOOOOOOOOOOOOOOOOy+++++++++++++++ub=OOOOOOOOOOOOOOOOOOOOO=O",
"OOOOOOOOOOOOOOOOOOOOOOOOOOOOOOOOOOOOOOOOOOOOOOOOOOOOO888888888888OOOOOOOOOOOy+++++++++++++++++lOOOOOOOOOOOOOOOOOOOOyAl",
"OOOOOOOOOOOOOOOOOOOOOOOOOOOOOOOOOOOOOOOOOOOOOOOOOOO:I++++++++++++I:OOOOOOOOOnu+++++++++++++++uL=OOOOOOOOOOOOOOOOO:A55A",
"OOOOOOOOOOOOOOOOOOOOOOOOOOOOOOOOOOOOOOOOOOOOOOOOOOOyu++++++++++++uyOOOOOOOOO8+++++++++++++++++uyOOOOOOOOOOOOOOOO8Z5@@Z",
"::::::::::::::::::::::::::::::::::::::::::::::::::Oyu++++++++++++uyO::::::::O+++++++++++++++++++lO::::::::::::Oy@@@@@@",
";;;;;;;;;;;;;;;;;;;;;;;;;;;;;;;;;;;;;;;;;;;;;;;;;;ipu++++++++++++upi;;;;;;;;FZ+++++++++++++++++eDi;;;;;;;;;;;iA5@@@@@@",
">>>>>>>>>>>>>>>>>>>>>>>>>>>>>>>>>>>>>>>>>>>>>>>>>>asu++++++++++++usa>>>>>>>>aSu++++++++++++++++@@ga>>>>>>>>aPB5@@@@@@@",
"oooooooooooooooooooooooooooooooooooooooooooooooooo>su++++++++++++us>oooooooo>V++++++++++++++++f@@5ga>oooooam5@@@@@@@@@",
"oooooooooooooooooooooooooooooooooooooooooooooooooo>du++++++++++++ud>oooooooooaZ++++++++++++++f@@@@5g>>oo>aC5@@@@@@@@@B",
"oooooooooooooooooooooooooooooooooooooooooooooooooo>dj999999999999jd>ooooooooo>su++++++++++++e@@@@@@5BVaaPB5@@@@@@@@@@g",
"oooooooooooooooooooooooooooooooooooooooooooooooooo>dj777777777777jd>oooooooooo>I+++++++++++e@@@@@@@@@@gr@@@@@@@@@@@@@r",
"oooooooooooooooooooooooooooooooooooooooooooooooooo>hj777777777777jh>ooooooooooaCu++++++++++@@@@@@@@@@@@5@@@@@@@@@@@@5V",
"ooooooooooooooooooooooooooooooooooooooooooooooooooo>kqqqqqqqqqqqqk>oooooooooooaCe+++++++++f@@@@@@@@@@@@@@@@@@@@@@@@@Da",
"ooooooooooooooooooooooooooooooooooooooooooooooooooooa000000000000aooooooooooo>PD@++++++++f@@@@@@@@@@@@@@@@@@@@@@@@@5r>",
"oooooooooooooooooooooooooooooooooooooooooooooooooooooooooooooooooooooooooooo>>B@@f++++++e@@@@@@@@@@@@@@@@@@@@@@@@@@D>o",
"ooooooooooooooooooooooooooooooooooooooooooooooooooooooooooooooooooooooooooooaAu@@@f+++++@@@@@@@@@@@@@@@@@@@@@@@@@@5M>o",
"oooooooooooooooooooooooooooooooooooooooooooooooooooooooooooooooooooooooooooaSu++@@@f+++f@@@@@@@@@@@@@@@@@@@@@@@@@5gaoo",
"ooooooooooooooooooooooooooooooooooooooooooooooooooooooooooooooooooooooooooaMu+++e@@@f+f@@@@@@@@@@@@@@@@@@@@@@@@@5Boooo",
"ooooooooooooooooooooooooooooooooooooooooooooooooooooooooooooooooooooooooo>Vu+++++e@@@@@@@@@@@@@@@@@@@@@@@@@@@@@5B&>ooo",
"oooooooooooooooooooooooooooooooooooooooooooooooooooooooooooooooooooooooo>P++++++++e@@@@@@@@@@@@@@@@@@@@@@@@@@@5g>>oooo",
"ooooooooooooooooooooooooooooooooooooooooooooooooooooooooooooooooooooooo>&e++++++++++@@@@@@@@@@@@@@@@@@@@@@@@5@Maoooooo",
"oooooooooooooooooooooooooooooooooooooooooooooooooooooooooooooooooooooo>>Z++++++++++f@@@@@@@@@@@@@@@@@@@@@@5@C0>ooooooo",
"ooooooooooooooooooooooooooooooooooooooooooooooooooooooooooooooooooooooaAu+++++++++f@@@@@@@@@@BBD@555555@Dgs0a>oooooooo",
"oooooooooooooooooooooooooooooooooooooooooooooooooooooooooooooooooooooaSu+++++++++e@@@@@@@@@@s>>PVmMrrMmV0a>ooooooooooo",
"ooooooooooooooooooooooooooooooooooooooooooooooooooooooooooooooooooooas+++++++++++@@@@@@@@@5Caoo>>>>aa>>>oooooooooooooo",
"oooooooooooooooooooooooooooooooooooooooooooooooooooooooooooooooooooam+++++++++++f@@@@@@@@@Booooooooooooooooooooooooooo",
"oooooooooooooooooooooooooooooooooooooooooooooooooooooooooooooooooo>N+++++++++++f@@@@@@@@@@V>oooooooooooooooooooooooooo",
"ooooooooooooooooooooooooooooooooooooooooooooooooooooooooooooooooo>0Zeeeeeeeeeee@@@@@@@@@5raooooooooooooooooooooooooooo",
"oooooooooooooooooooooooooooooooooooooooooooooooooooooooooooooooooaB@@@@@@@@@@@@@@@@@@@@5gaoooooooooooooooooooooooooooo",
"ooooooooooooooooooooooooooooooooooooooooooooooooooooooooooooooooag@@@@@@@@@@@@@@@@@@@@@@0>oooooooooooooooooooooooooooo",
"&&&&&&&&&&&&&&&&&&&&&&&&&&&&&&&&&&&&&&&&&&&&&&&&&&&&&&&&&&&&&&&ag5555555555555555555555m>&&&&&&&&&&&&&&&&&&&&&&&&&&&&&",
"***************************************************************F4444444444444444444444K$*****************************6",
"XXXXXXXXXXXXXXXXXXXXXXXXXXXXXXXXXXXXXXXXXXXXXXXXXXXXXXXXXXXXXXXX33333333333333333333333XXXXXXXXXXXXXXXXXXXXXXXXXXXX...",
"XXXXXXXXXXXXXXXXXXXXXXXXXXXXXXXXXXXXXXXXXXXXXXXXXXXXXXXXXXXXXXXXXXXXXXXXXXXXXXXXXXXXXXXXXXXXXXXXXXXXXXXXXXXXXXXX......",
"XXXXXXXXXXXXXXXXXXXXXXXXXXXXXXXXXXXXXXXXXXXXXXXXXXXXXXXXXXXXXXXXXXXXXXXXXXXXXXXXXXXXXXXXXXXXXXXXXXXXXXXXXXXXXX........",
"XXXXXXXXXXXXXXXXXXXXXXXXXXXXXXXXXXXXXXXXXXXXXXXXXXXXXXXXX*66*XXXXXXXXXXXXXXXXXXXXXXXXXXXXXXXXXXXXXXXXXXXXXX...........",
"XXXXXXXXXXXXXXXXXXXXXXXXXXXXXXXXXXXXXXXXXXXXXXXXXXXXXXXX666666XXXXXXXXXXXXXXXXXXXXXXXXXXXXXXXXXXXXXXXXXX..............",
"XXXXXXXXXXXXXXXXXXXXXXXXXXXXXXXXXXXXXXXXXXXXXXXXXXXXXXX.666666.XXXXXXXXXXXXXXXXXXXXXXXXXXXXXXXXXXXXXXX................",
"XXXXXXXXXXXXXXXXXXXXXXXXXXXXXXXXXXXXXXXXXXXXXXXXXXXXXXX*666666*XXXXXXXXXXXXXXXXXXXXXXXXXXXXXXXXXXXX...................",
"XXXXXXXXXXXXXXXXXXXXXXXXXXXXXXXXXXXXXXXXXXXXXXXXXXXXXXX*666666*XXXXXXXXXXXXXXXXXXXXXXXXXXXXXXXXXX.....................",
"XXXXXXXXXXXXXXXXXXXXXXXXXXXXXXXXXXXXXXXXXXXXXXXXXXXXXXXX666666XXXXXXXXXXXXXXXXXXXXXXXXXXXXXXXX........................",
"XXXXXXXXXXXXXXXXXXXXXXXXXXXXXXXXXXXXXXXXXXXXXXXXXXXXXXXX.6666.XXXXXXXXXXXXXXXXXXXXXXXXXXXXX...........................",
"XXXXXXXXXXXXXXXXXXXXXXXXXXXXXXXXXXXXXXXXXXXXXXXXXXXXXXXXXX..XXXXXXXXXXXXXXXXXXXXXXXXXXXXX.............................",
"XXXXXXXXXXXXXXXXXXXXXXXXXXXXXXXXXXXXXXXXXXXXXXXXXXXXXXXXXXXXXXXXXXXXXXXXXXXXXXXXXXXXXX................................",
"XXXXXXXXXXXXXXXXXXXXXXXXXXXXXXXXXXXXXXXXXXXXXXXXXXXXXXXXXXXXXXXXXXXXXXXXXXXXXXXXXXX...................................",
"XXXXXXXXXXXXXXXXXXXXXXXXXXXXXXXXXXXXXXXXXXXXXXXXXXXXXXXXXXXXXXXXXXXXXXXXXXXXXXXXX.....................................",
"XXXXXXXXXXXXXXXXXXXXXXXXXXXXXXXXXXXXXXXXXXXXXXXXXXXXXXXXXXXXXXXXXXXXXXXXXXXXX.........................................",
"XXXXXXXXXXXXXXXXXXXXXXXXXXXXXXXXXXXXXXXXXXXXXXXXXXXXXXXXXXXXXXXXXXXXXXXXXXX...........................................",
"XXXXXXXXXXXXXXXXXXXXXXXXXXXXXXXXXXXXXXXXXXXXXXXXXXXXXXXXXXXXXXXXXXXXXXXX..............................................",
"XXXXXXXXXXXXXXXXXXXXXXXXXXXXXXXXXXXXXXXXXXXXXXXXXXXXXXXXXXXXXXXXXXXXXX................................................",
"XXXXXXXXXXXXXXXXXXXXXXXXXXXXXXXXXXXXXXXXXXXXXXXXXXXXXXXXXXXXXXXXXXX...................................................",
"XXXXXXXXXXXXXXXXXXXXXXXXXXXXXXXXXXXXXXXXXXXXXXXXXXXXXXXXXXXXXXXX......................................................",
"XXXXXXXXXXXXXXXXXXXXXXXXXXXXXXXXXXXXXXXXXXXXXXXXXXXXXXXXXXXXXX........................................................",
"XXXXXXXXXXXXXXXXXXXXXXXXXXXXXXXXXXXXXXXXXXXXXXXXXXXXXXXXXXX...........................................................",
"XXXXXXXXXXXXXXXXXXXXXXXXXXXXXXXXXXXXXXXXXXXXXXXXXXXXXXXX..............................................................",
"XXXXXXXXXXXXXXXXXXXXXXXXXXXXXXXXXXXXXXXXXXXXXXXXXXXXXX................................................................",
"XXXXXXXXXXXXXXXXXXXXXXXXXXXXXXXXXXXXXXXXXXXXXXXXXXX...................................................................",
"XXXXXXXXXXXXXXXXXXXXXXXXXXXXXXXXXXXXXXXXXXXXXXXX......................................................................",
"XXXXXXXXXXXXXXXXXXXXXXXXXXXXXXXXXXXXXXXXXXXXXX........................................................................",
"XXXXXXXXXXXXXXXXXXXXXXXXXXXXXXXXXXXXXXXXXXX...........................................................................",
"XXXXXXXXXXXXXXXXXXXXXXXXXXXXXXXXXXXXXXXX..............................................................................",
"XXXXXXXXXXXXXXXXXXXXXXXXXXXXXXXXXXXXXX................................................................................",
"XXXXXXXXXXXXXXXXXXXXXXXXXXXXXXXXXXX...................................................................................",
"XXXXXXXXXXXXXXXXXXXXXXXXXXXXXXXXX.....................................................................................",
"XXXXXXXXXXXXXXXXXXXXXXXXXXXXXX........................................................................................",
"XXXXXXXXXXXXXXXXXXXXXXXXXXX...........................................................................................",
"XXXXXXXXXXXXXXXXXXXXXXXX..............................................................................................",
"XXXXXXXXXXXXXXXXXXXXXX................................................................................................",
"XXXXXXXXXXXXXXXXXXX...................................................................................................",
"XXXXXXXXXXXXXXXX......................................................................................................",
"XXXXXXXXXXXXXX........................................................................................................",
"XXXXXXXXXXX...........................................................................................................",
"HXXXXXXXX.............................................................................................................",
"n3XXXX..............................................................................................................$%",
" G3$$$$$$$$$$$$$$$$$$$$$$$$$$$$$$$$$$$$$$$$$$$$$$$$$$$$$$$$$$$$$$$$$$$$$$$$$$$$$$$$$$$$$$$$$$$$$$$$$$$$$$$$$$$$$$$$$F ",
"  b%%%%%%%%%%%%%%%%%%%%%%%%%%%%%%%%%%%%%%%%%%%%%%%%%%%%%%%%%%%%%%%%%%%%%%%%%%%%%%%%%%%%%%%%%%%%%%%%%%%%%%%%%%%%%%%%b  ",
"                                                                                                                      ",
"                                                                                                                      ",
"                                                                                                                      ",
"                                                                                                                      ",
"                                                                                                                      ",
"                                                                                                                      ",
"                                                                                                                      "
};
