/* XPM */
static const char *toolbox[] = {
/* columns rows colors chars-per-pixel */
"16 16 167 2 ",
"   c gray100",
".  c #DDE2E5",
"X  c #A2AEB3",
"o  c #9FABB0",
"O  c #A2AEB3",
"+  c #DDE2E4",
"@  c #F6F8F8",
"#  c #E8EDEF",
"$  c #ECF1F3",
"%  c #FDFEFE",
"&  c #FFF2EF",
"*  c #FFF0EC",
"=  c #FFF0EC",
"-  c #FFF1ED",
";  c #F5E8E4",
":  c #959699",
">  c #989697",
",  c #A19C9D",
"<  c #989597",
"1  c #99A1A6",
"2  c #D0DADE",
"3  c #D1D4D5",
"4  c #EAE0DD",
"5  c #FEF0EB",
"6  c #FFF2EE",
"7  c #FF9B7C",
"8  c #FF9878",
"9  c #FF9878",
"0  c #FF9878",
"q  c #FC9675",
"w  c #EF8A6B",
"e  c #FC9979",
"r  c #FDA286",
"t  c #FDA286",
"y  c #FD9878",
"u  c #DAB4A9",
"i  c #CBD9DE",
"p  c #E0BDB3",
"a  c #FE9777",
"s  c #FF9776",
"d  c #FA9E81",
"f  c #DE5F37",
"g  c #DE5F37",
"h  c #DE5F37",
"j  c #DE5F37",
"k  c #DE5F37",
"l  c #DF5F37",
"z  c #DB6B49",
"x  c #CDBCB8",
"c  c #CDBCB8",
"v  c #DB6A47",
"b  c #D49684",
"n  c #CDD9DD",
"m  c #CDCBCB",
"M  c #D88369",
"N  c #D98066",
"B  c #C3AFAA",
"V  c #BC350B",
"C  c #BC340A",
"Z  c #BA3C15",
"A  c #AF6C5A",
"S  c #AF6C5A",
"D  c #BA3911",
"F  c #BF735D",
"G  c #C7D1D5",
"H  c #B7C6CC",
"J  c #AFB2B5",
"K  c #AFB4B7",
"L  c #B0A6A5",
"P  c #BD360C",
"I  c #BD360C",
"U  c #BD360C",
"Y  c #BD340A",
"T  c #BD3308",
"R  c #C05939",
"E  c #C7BEBD",
"W  c #B7C7CD",
"Q  c #B0AEAF",
"!  c #B1A5A4",
"~  c #B3938A",
"^  c #B95436",
"/  c #C3390E",
"(  c #C3390E",
")  c #C4390D",
"_  c #C3451F",
"`  c #C49C91",
"'  c #C4BEBD",
"]  c #B9A8A5",
"[  c #C05A3C",
"{  c #C2421B",
"}  c #C33D14",
"|  c #C3380C",
" . c #EC4D1C",
".. c #ED4D1C",
"X. c #E64A1A",
"o. c #E64F21",
"O. c #EB5E33",
"+. c #EB5D32",
"@. c #EB5A2D",
"#. c #EC4D1C",
"$. c #EA4B1A",
"%. c #E64A19",
"&. c #E24817",
"*. c #F3501E",
"=. c #F4501E",
"-. c #ED4D1C",
";. c #ED4D1C",
":. c #F44F1D",
">. c #F24F1C",
",. c #EF4D1B",
"<. c #EA4C1A",
"1. c #E74B19",
"2. c #E54A18",
"3. c #E54A18",
"4. c #F3501E",
"5. c #F3501E",
"6. c #F3501E",
"7. c #F3501E",
"8. c #F3501E",
"9. c #F04F1D",
"0. c #EB4D1B",
"q. c #E74B19",
"w. c #E54A18",
"e. c #E54A18",
"r. c #E54A18",
"t. c #E54A18",
"y. c #E54A18",
"u. c #F3501E",
"i. c #F3501E",
"p. c #F3501E",
"a. c #F3501E",
"s. c #F14F1D",
"d. c #ED4D1B",
"f. c #E84B19",
"g. c #E64A18",
"h. c #E54A18",
"j. c #E54A18",
"k. c #E54A18",
"l. c #F34E1C",
"z. c #F34F1C",
"x. c #F14E1C",
"c. c #EE4D1A",
"v. c #EA4B18",
"b. c #E64917",
"n. c #E54916",
"m. c #E54916",
"M. c #E54916",
"N. c #E54916",
"B. c #E54916",
"V. c #E54816",
"C. c #F36A40",
"Z. c #EF6437",
"A. c #EA6236",
"S. c #E86135",
"D. c #E86135",
"F. c #E86135",
"G. c #E86135",
"H. c #E86135",
"J. c #E86135",
"K. c #E9663B",
"L. c #FCEAE4",
"P. c #FBE6DF",
"I. c #FBE6DF",
"U. c #FBE6DF",
"Y. c #FBE6DF",
"T. c #FBE6DF",
"R. c #FCE9E3",
/* pixels */
"                                ",
"                                ",
"          . X o o O + @ # $ %   ",
"& * = - ; : > , , < 1 2 3 4 5 6 ",
"7 8 9 0 q w e r t y u i p a s d ",
"f g h j k l z x c v b n m M N B ",
"V V V V V C Z A S D F G H J K L ",
"P P P P P I U Y T R E W Q ! ~ ^ ",
"/ / / / / / ( ) _ ` ' ] [ { } | ",
" . . . . . ...X.o.O.+.@.#.$.%.&.",
"*.*.*.*.*.*.=.-.;.:.>.,.<.1.2.3.",
"4.4.4.4.5.6.7.8.9.0.q.w.e.r.t.y.",
"4.u.i.p.a.s.d.f.g.h.j.k.y.y.y.y.",
"l.z.x.c.v.b.n.m.M.N.N.N.N.N.B.V.",
"C.Z.A.S.D.F.G.H.H.H.H.H.H.H.J.K.",
"L.P.I.U.Y.Y.Y.Y.Y.Y.Y.Y.Y.Y.T.R."
};
