/* XPM */
static const char *database_profile[] = {
/* columns rows colors chars-per-pixel */
"16 16 192 2 ",
"   c #404448",
".  c #464B50",
"X  c #4A4D51",
"o  c #4B4F53",
"O  c #54575A",
"+  c #5A5D5F",
"@  c #667B8A",
"#  c #707B84",
"$  c #6E818F",
"%  c #6E8494",
"&  c #738796",
"*  c #7D8C97",
"=  c #748C9D",
"-  c #778C9C",
";  c #7F8E9A",
":  c #798E9D",
">  c #778FA0",
",  c #868C92",
"<  c #82939F",
"1  c #8E969D",
"2  c #8195A4",
"3  c #8197A6",
"4  c #8896A1",
"5  c #8698A6",
"6  c #8099AA",
"7  c #849AAA",
"8  c #839AAC",
"9  c #8C9EAC",
"0  c #919DA6",
"q  c #959DA5",
"w  c #94A1AB",
"e  c #95A3AE",
"r  c #9CA5AC",
"t  c #8DA2B1",
"y  c #8FA4B4",
"u  c #8DA4B6",
"i  c #8EA5B7",
"p  c #92A4B2",
"a  c #97A5B1",
"s  c #96A6B3",
"d  c #98A5B0",
"f  c #9DA8B2",
"g  c #9EA9B3",
"h  c #98A9B5",
"j  c #98A9B7",
"k  c #99AAB7",
"l  c #9AAAB6",
"z  c #9CA9B4",
"x  c #95AABA",
"c  c #96ABBB",
"v  c #96ABBC",
"b  c #99ACBB",
"n  c #9BADBB",
"m  c #9DACB8",
"M  c #98AEBF",
"N  c #9AAEBE",
"B  c #A1ADB7",
"V  c #A5ADB4",
"C  c #A1ADB8",
"Z  c #A0AFBB",
"A  c #A3AFBA",
"S  c #ABB1B6",
"D  c #A6B1BB",
"F  c #A3B1BE",
"G  c #AAB3BB",
"H  c #ABB3BB",
"J  c #AEB4B9",
"K  c #AEB5BB",
"L  c #AAB4BD",
"P  c #AAB5BD",
"I  c #AFB7BD",
"U  c #B0B6BB",
"Y  c #B3B7BB",
"T  c #98AFC0",
"R  c #99B0C1",
"E  c #9AB0C1",
"W  c #9CB0C0",
"Q  c #9FB2C0",
"!  c #9FB4C4",
"~  c #A3B5C4",
"^  c #A1B7C7",
"/  c #A5B7C5",
"(  c #A4B7C6",
")  c #ABB6C0",
"_  c #AAB8C4",
"`  c #A9BAC7",
"'  c #A2B8C9",
"]  c #A3B9C9",
"[  c #A3B9CA",
"{  c #A6BBCB",
"}  c #AABECE",
"|  c #ACBECC",
" . c #B6BCC2",
".. c #B0BBC4",
"X. c #B2BDC4",
"o. c #B1BCC6",
"O. c #B4BFC7",
"+. c #B4C1CD",
"@. c #B6C3CE",
"#. c #BAC3CB",
"$. c #BFC6CD",
"%. c #BDC6CF",
"&. c #BEC7CF",
"*. c #ADC1D2",
"=. c #AFC3D3",
"-. c #B1C2D1",
";. c #B5C5D2",
":. c #B0C4D4",
">. c #B1C4D4",
",. c #B4C6D4",
"<. c #B9C7D2",
"1. c #BEC8D0",
"2. c #BFC8D0",
"3. c #B6C9D9",
"4. c #BCCBD8",
"5. c #BCCEDC",
"6. c #BED0DE",
"7. c #BED0DF",
"8. c #C0C6CC",
"9. c #C0C8CE",
"0. c #C7CACC",
"q. c #C3CAD0",
"w. c #C3CBD1",
"e. c #CBD2D7",
"r. c #CED1D4",
"t. c #CED2D6",
"y. c #CED2D7",
"u. c #C2D1DD",
"i. c #CBD4DB",
"p. c #CBD4DC",
"a. c #CBD6DF",
"s. c #CDD6DE",
"d. c #D1D6DA",
"f. c #D7DCDF",
"g. c #DADBDC",
"h. c #C4D5E3",
"j. c #C7D6E3",
"k. c #CAD8E3",
"l. c #CFDAE3",
"z. c #CBDAE7",
"x. c #CEDAE5",
"c. c #CADAE8",
"v. c #CBDBE9",
"b. c #CDDDEB",
"n. c #CFDDEA",
"m. c #CDDEEC",
"M. c #CFDEEC",
"N. c #D0DAE2",
"B. c #D0DBE4",
"V. c #D1DCE5",
"C. c #D2DCE5",
"Z. c #D2DDE5",
"A. c #D2DDE6",
"S. c #D3DDE6",
"D. c #D5DEE6",
"F. c #D6DFE6",
"G. c #D8DFE4",
"H. c #D0DDE8",
"J. c #D1DEE9",
"K. c #D3DEE8",
"L. c #D3DFE9",
"P. c #D0DFEB",
"I. c #D6E0E8",
"U. c #D7E1E9",
"Y. c #D5E1EB",
"T. c #D1E0ED",
"R. c #DAE1E8",
"E. c #D8E2E9",
"W. c #D9E2E9",
"Q. c #D9E2EA",
"!. c #DAE3EA",
"~. c #DAE3EB",
"^. c #DCE4EB",
"/. c #DBE5ED",
"(. c #D8E4EE",
"). c #D9E5EF",
"_. c #DEE6EC",
"`. c #DEE6ED",
"'. c #DFE7ED",
"]. c #DFE9F2",
"[. c #E0E7EE",
"{. c #E7E9EB",
"}. c #E0E8EE",
"|. c #E1E9EE",
" X c #E9EBEC",
".X c #E4EBF0",
"XX c #E4EBF1",
"oX c #EDF0F1",
"OX c #EDF2F5",
"+X c #F2F3F3",
"@X c #F7F8F9",
"#X c None",
/* pixels */
"#X#X#X|.'.'._.^.!.!.#X#X#X#X#X#X",
"#XOX.X!.!.U.!.E.!.!.'.[.A.#X#X#X",
"].XX'.U.A.B.A.A.B.l.i.i...#X#X#X",
"m././.K.u.4.;.` s * # S r #X#X#X",
"x.x.K.k.=.' E u 6 = & X.P #X#X#X",
"D.e.q.#.Z j p 9 5 < 4 9.O.#X#X#X",
"b./.L.a.+.` F m l w 1 J V #X#X#X",
"b.A.K.j.=.' E v l H y.y.I #X#X#X",
"U.q.$.;.( Q c b H {.@X+Xd.#X#X#X",
"m.U.s.2.) A C D $.oX Xg.0.J #X#X",
"b.K.k.7.:.{ ! Q o.G.f.r.U U #X#X",
"!.2.<.*.} ( T j l ..$. .q , #X#X",
"m.B.$.P B z s e d g g z 0 . O #X",
"v.v.h.5.,.| ~ b t 3 : 2 < +   X ",
"#Xj.7.3.*.' E i 8 > % $ #X#X#XX ",
"#X#X#X} ( N p 7 = @ #X#X#X#X#X#X"
};
