<?xml version="1.0" encoding="utf-8"?>
<!-- Svg Vector Icons : http://www.onlinewebfonts.com/icon -->
<!DOCTYPE svg PUBLIC "-//W3C//DTD SVG 1.1//EN" "http://www.w3.org/Graphics/SVG/1.1/DTD/svg11.dtd">
<svg version="1.1" xmlns="http://www.w3.org/2000/svg" xmlns:xlink="http://www.w3.org/1999/xlink" x="0px" y="0px" viewBox="0 0 1000 1000" enable-background="new 0 0 1000 1000" xml:space="preserve">
<metadata> Svg Vector Icons : http://www.onlinewebfonts.com/icon </metadata>
<g><g transform="translate(0.000000,512.000000) scale(0.100000,-0.100000)"><path d="M4904.5,4996.8c-114.9-63.2-4567.7-3310-4588.8-3350.2c-44-80.4-30.6-164.6,40.2-235.5L421,1346l4585,3.8l4585,5.7l49.8,45.9c101.5,95.7,82.3,250.8-42.1,333.1c-40.2,24.9-1035.7,746.6-2214.9,1602.3c-1179.3,855.7-2186.2,1585.1-2237.9,1621.5C5046.2,5025.5,4981.1,5037,4904.5,4996.8z"/><path d="M830.7,915.3C706.2,861.7,712,949.8,712-1117.8c0-1822.5,1.9-1874.2,38.3-1933.5c59.4-97.6,109.1-105.3,827-97.6l647.1,5.8l61.3,63.2l63.2,61.3v1914.4V810l-63.2,61.3l-61.3,63.2l-666.2,3.8C1012.6,942.1,882.4,938.3,830.7,915.3z"/><path d="M7783.7,917.2c-132.1-57.4-122.5,88.1-122.5-2021.6c0-2115.4-9.6-1964.2,126.3-2021.6c93.8-38.3,1280.7-38.3,1374.5,0c135.9,57.4,126.3-93.8,126.3,2021.6c0,2115.4,9.6,1964.2-126.3,2021.6C9070.2,955.5,7871.8,955.5,7783.7,917.2z"/><path d="M3468.7,524.8c-90-21.1-195.3-49.8-233.6-67l-72.7-30.6v-1502.8c0-1261.6,3.8-1502.8,26.8-1502.8c13.4,0,61.3,11.5,103.4,26.8c292.9,103.4,917,116.8,1267.3,24.9c99.6-26.8,239.3-72.7,310.1-105.3l128.3-57.4l91.9,44c417.3,201,1125.7,241.2,1621.5,95.7c51.7-15.3,101.5-28.7,111-28.7c7.6,0,15.3,675.8,15.3,1502.8c0,1441.5-1.9,1502.8-36.4,1520c-19.2,11.5-97.6,38.3-176.1,61.3c-216.3,63.2-760,74.7-1016.6,21.1c-103.4-21.1-233.6-61.3-291-86.1l-105.3-49.8l-5.7-995.5l-5.7-993.6l-45.9-49.8c-86.1-91.9-250.8-82.3-317.8,19.2c-24.9,38.3-28.7,172.3-28.7,1029.9v985.9l-55.5,30.6c-30.6,15.3-132.1,51.7-225.9,78.5c-151.2,45.9-204.8,51.7-532.2,57.4C3690.8,559.2,3604.6,555.4,3468.7,524.8z"/><path d="M375.1-3619.9L310-3685v-482.4v-482.4l65.1-65.1l65.1-65.1h4554.3c4475.8,0,4554.3,0,4613.7,38.3c88.1,53.6,101.5,126.3,101.5,574.3c0,448-13.4,520.7-101.5,574.3c-59.4,38.3-137.8,38.3-4613.7,38.3H440.1L375.1-3619.9z"/></g></g>
</svg>