/* XPM */
static char *odbc[] = {
/* columns rows colors chars-per-pixel */
"41 45 101 2",
"   c #000000",
".  c #050500",
"X  c #000014",
"o  c #1C1C1C",
"O  c #062100",
"+  c #393100",
"@  c #00002F",
"#  c #2E252E",
"$  c #2A2A2A",
"%  c #333333",
"&  c #10540F",
"*  c #006200",
"=  c #336526",
"-  c #444400",
";  c #5C5600",
":  c #6C6C00",
">  c #49493D",
",  c #14144E",
"<  c #2A2A5F",
"1  c #36367A",
"2  c #424242",
"3  c #4E4E4E",
"4  c #574A57",
"5  c #5A5A5A",
"6  c #755B5A",
"7  c #55567B",
"8  c #6A5E6F",
"9  c #646466",
"0  c #6B6B6B",
"q  c #7F7F6C",
"w  c #7C7C7C",
"e  c #861B1B",
"r  c #882828",
"t  c #A77777",
"y  c #2EA800",
"u  c #279A27",
"i  c #27BC3E",
"p  c #4DA73E",
"a  c #24C329",
"s  c #32924D",
"d  c #619E4D",
"f  c #45B843",
"g  c #53A953",
"h  c #718B6C",
"j  c #42B465",
"k  c #6DAA6B",
"l  c #73A67A",
"z  c #67D654",
"x  c #838300",
"c  c #929200",
"v  c #ABAB00",
"b  c #B7B700",
"n  c #85852D",
"m  c #C2C200",
"M  c #D6D600",
"N  c #F0F000",
"B  c #FFFF00",
"V  c #8F8F63",
"C  c #84847B",
"Z  c #8AC075",
"A  c #3C3C92",
"S  c #0000B9",
"D  c #5457AA",
"F  c #3636DB",
"G  c #6767EE",
"H  c #0DBFBF",
"J  c #4E8B8E",
"K  c #7497A8",
"L  c #36F4F7",
"P  c #70CFDD",
"I  c #858585",
"U  c #88888E",
"Y  c #8F8F8F",
"T  c #9B9B85",
"R  c #97978C",
"E  c #9B9B9B",
"W  c #AB8787",
"Q  c #A6A6A6",
"!  c #ADADB1",
"~  c #B8A7B8",
"^  c #B4B4B4",
"/  c #BEBEBE",
"(  c #FF8282",
")  c #A6C6A9",
"_  c #D3D39E",
"`  c #8383FF",
"'  c #84D9D3",
"]  c #A3E3D3",
"[  c #85EDEE",
"{  c #C4C4C4",
"}  c #CACACC",
"|  c #CFCFCF",
" . c #D8D8D8",
".. c #DCDCFF",
"X. c #CEE6EF",
"o. c #E1E1E1",
"O. c #E9E9EB",
"+. c #FFFFEE",
"@. c #F2F2F2",
"#. c #FAFAFA",
"$. c #FFFFFF",
/* pixels */
"$.$.$.$.$.$.$.$.$.$.$.$.$.$.$.$.$.$.$.$.$.$.$.$.$.$.$.$.$.$.$.$.$.$.$.$.$.$.$.$.$.",
"$.$.$.$.$.$.$.$.$.$.$.$.$.$.$.$.$.$.$.$.$.$.$.$.$.$.$.$.$.$.$.$.$.$.$.$.$.$.$.$.$.",
"$.$.$.$.$.$.$.$.$.$.$.$.$.$.$.$.$.$.$.$.$.$.$.$.$.$.$.$.$.$.$.$.$.$.$.$.$.$.$.$.$.",
"$.$.$.$.$.$.$.$.$.$.$.$.$.$.$.$.....................O.$.$.$.$.$.$.$.$.$.$.$.$.$.$.",
"$.$.$.$.$.$.$.$.$.$.$.$.$.Y Q E @ G S ` S S ` S F A > $.Y E $.$.$.$.$.$.$.$.$.$.$.",
"$.$.$.$.$.$.$.$.$.$.$.6 5 E E E ! + | $.+.+.$.+.$.^   5 E E 5 9 $.$.$.$.$.$.$.$.$.",
"$.$.$.$.$.$.$.$.$.$.6 L [ [ z h i l O $.w w @.Y 0   Q { | | { /   ^ $.$.$.$.$.$.$.",
"$.$.$.$.$.$.$.$.$.E H ' [ Z K i k l f   $.O.$.o.$ $.| { } } } | o.0 | $.$.$.$.$.$.",
"$.$.$.$.$.$.$.$.@.Y P [ ' Z P d j l g 4 9 } #./ 3 $.@.o.^ } | | Y 5  .$.$.$.$.$.$.",
"$.$.$.$.$.$.$.$.| 0  .L ] k p d s d g u # Q #.E 2  .| O.$.O.E E I 2  .$.$.$.$.$.$.",
"$.$.$.$.$.$.$.$. .0 L X.y d J a l l f C 9 $.#.#.  I Q { | Q I 0     o.$.$.$.$.$.$.",
"$.$.$.$.$.$.$.$.O.X ; ; + q P l u : ; :   .     w $./ Y / w 2 5  .w  .$.$.$.$.$.$.",
"$.$.$.$.$.$.$.$.R x x B B c = u b c B B - 4 } | % | O.@.{ Q Q ^ w 2  .$.$.$.$.$.$.",
"$.$.$.$.$.$.$.$.  : b ; B v ) X x m ; B M   O.$.o  .{ / O.{ w w I 2  .$.$.$.$.$.$.",
"$.$.$.$.$.$.$.$.$.$.U   B : @ o X % X B M     #.% { | | / E I Y I 2  .$.$.$.$.$.$.",
"$.$.$.$.$.$.$.$.$._ : B N - ! $.$.$.1 B : # Y   $.2 w Y ( ^ 0 3 $ Q #.$.$.$.$.$.$.",
"$.$.$.$.$.$.$.$.$. .n c B B ; 3 5 7 v x U E E   $.$.{ Q 9 3 . ^ @.$.$.$.$.$.$.$.$.",
"$.$.$.$.$.$.$.$.$.$.$.@ x B : O.U x c #.^   @   $.$.$.$.Q I #.$.$.$.$.$.$.$.$.$.$.",
"$.$.$.$.$.$.$.$.    } , : N - ~ : m     : B : X $.$.$.$.| E $.$.$.$.$.$.$.$.$.$.$.",
"$.$.$.$.$.$.$.$.+ B b c N :   x B B B B B b c   $.$.$.$.{ E $.$.$.$.$.$.$.$.$.$.$.",
"$.$.$.$.$.$.$.$.R ; x v : 8 # x : : : : :   V   $.$.$.$.{ E $.$.$.$.$.$.$.$.$.$.$.",
"$.$.$.$.$.$.$.$.$. .O.@ U Q $.@.O.O.O.@.E w T   $.$.$.$.| I $.$.$.$.$.$.$.$.$.$.$.",
"$.$.$.$.$.$.$.$.$.$.$.o o.^ 0 w w w w w | D @   2 $.$.@.2 $.$.$.$.$.$.$.$.$.$.$.$.",
"$.$.$.$.$.$.$.$.$.$. .2 E 0 3 5 5 5 5 5 Y < 3 $ Q O.$.$.$ $.$.$.$.$.$.$.$.$.$.$.$.",
"$.$.$.$.$.$.$.$.$.| Q ^ o 2 2 2 2 2 2 2 % 2 5 O.Y ! Q 0 o.$.$.$.$.$.$.$.$.$.$.$.$.",
"$.$.$.$.$.$.$.$.$.E } $.$.$.$.#.$.$.$.$.$.$.$.Q 9   { @.$.$.$.$.$.$.$.$.$.$.$.$.$.",
"$.$.$.$.$.$.$.$.$.E } } / { / } ! a *     9 / w 9 E $.$.$.$.$.$.$.$.$.$.$.$.$.$.$.",
"$.$.$.$.$.$.$.$.$.E | o.|  . .| } l h 0 w I | I 2 w @.$.$.$.$.$.$.$.$.$.$.$.$.$.$.",
"$.$.$.$.$.$.$.$.$.O.Y % % % % % # &         %   w $.$.$.$.$.$.$.$.$.$.$.$.$.$.$.$.",
"$.$.$.$.$.$.$.$.$.$.#.@.@.@.@.@.@.@.@.@.@.@.@.@.$.$.$.$.$.$.$.$.$.$.$.$.$.$.$.$.$.",
"$.$.$.$.$.$.$.$.$.$.$.$.$.$.$.$.$.$.$.$.$.$.$.$.$.$.$.$.$.$.$.$.$.$.$.$.$.$.$.$.$.",
"$.$.$.$.$.$.$.$.$.$.$.$.$.$.$.$.$.$.$.$.$.$.$.$.$.$.$.$.$.$.$.$.$.$.$.$.$.$.$.$.$.",
"$.$.$.$.$.$.$.$.$.$.$.$.$.$.$.$.$.$.$.$.$.$.$.$.$.$.$.$.$.$.$.$.$.$.$.$.$.$.$.$.$.",
"$.$.$.$.$.$.$.$.$.$.$.$.$.$.$.$.$.$.$.$.$.$.$.$.$.$.$.$.$.$.$.$.$.$.$.$.$.$.$.$.$.",
"$.$.$.$.$.$.$.$.$.#.w $ o I $.$.  %   | $.$.$.  2 . { $.$.I o $ w @.$.$.$.$.$.$.$.",
"$.$.$.$.$.$.$.$.$.Y } $.$.E { $.3 $.$.I / $.$.  $.$.$ $.{ E $.$.O.{ $.$.$.$.$.$.$.",
"$.$.$.$.$.$.$.$.$.E { $.$.E } $.2 $.$.$.o $.$.  $.$.$ $.} E $.$.$.$.$.$.$.$.$.$.$.",
"$.$.$.$.$.$.$.$.$.E { $.$.E } $.2 $.$.#.2 $.$.      o.$.{ E $.$.$.$.$.$.$.$.$.$.$.",
"$.$.$.$.$.$.$.$.$.E { $.$.E } $.2 $.$.$.o $.$.  $.$.$ $.} E $.$.$.$.$.$.$.$.$.$.$.",
"$.$.$.$.$.$.$.$.$.Y } $.$.E { $.3 $.$.I / $.$.  $.$.$ $.{ E $.$.O.{ $.$.$.$.$.$.$.",
"$.$.$.$.$.$.$.$.$.#.t r e W $.$.  %   | $.$.$.  2 . { $.$.I o $ w @.$.$.$.$.$.$.$.",
"$.$.$.$.$.$.$.$.$.$.$.$.$.$.$.$.$.$.$.$.$.$.$.$.$.$.$.$.$.$.$.$.$.$.$.$.$.$.$.$.$.",
"$.$.$.$.$.$.$.$.$.$.$.$.$.$.$.$.$.$.$.$.$.$.$.$.$.$.$.$.$.$.$.$.$.$.$.$.$.$.$.$.$.",
"$.$.$.$.$.$.$.$.$.$.$.$.$.$.$.$.$.$.$.$.$.$.$.$.$.$.$.$.$.$.$.$.$.$.$.$.$.$.$.$.$.",
"$.$.$.$.$.$.$.$.$.$.$.$.$.$.$.$.$.$.$.$.$.$.$.$.$.$.$.$.$.$.$.$.$.$.$.$.$.$.$.$.$."
};
