<?xml version="1.0" encoding="UTF-8"?>
<svg id="SVGRoot" width="16px" height="16px" version="1.1" viewBox="0 0 16 16" xmlns="http://www.w3.org/2000/svg" xmlns:cc="http://creativecommons.org/ns#" xmlns:dc="http://purl.org/dc/elements/1.1/" xmlns:rdf="http://www.w3.org/1999/02/22-rdf-syntax-ns#">
 <metadata>
  <rdf:RDF>
   <cc:Work rdf:about="">
    <dc:format>image/svg+xml</dc:format>
    <dc:type rdf:resource="http://purl.org/dc/dcmitype/StillImage"/>
    <dc:title/>
   </cc:Work>
  </rdf:RDF>
 </metadata>
 <g stroke="#000">
  <rect x="12.556" y=".98646" width="2.6221" height="4.8201" fill="#808080" stroke-width=".10997"/>
  <g fill="none" stroke-width="1px">
   <path d="m0 555c0.16838 0.17165 0.33892 0.34121 0.50514 0.51495 0.013494 0.0141 0 0.11841 0 0.14095 0 0.0791-0.001269 0.16127-0.032822 0.22815-0.036464 0.0773 0.040216 0.29687 0 0.36618-0.063468 0.10938 0.001153 0.24025-0.037423 0.35552-0.052308 0.15631-0.019632 0.36972-0.019632 0.53635v0.99831c0 0.13124-0.052048 0.6208-0.016411 0.71588 0.003248 9e-3 0.015139 0.0115 0.019632 0.0196 0.034599 0.0623-0.034956 0.18272 0 0.24479 0.049593 0.088 0.018098 0.4991 0.018098 0.63558 0 0.2133-0.035515 0.77696 0.03704 0.92431 0.026933 0.0547-0.005654 0.44572-0.019632 0.5125-0.0305 0.14571 0 0.36912 0 0.52132 0 0.20606-0.019632 0.40327-0.019632 0.60751 0 0.22789-0.019632 0.44283-0.019632 0.67194v0.1615c0 0.0327 0.02841 0.11413 0 0.098-0.14088-0.07994-0.27648-0.16888-0.41472-0.25334"/>
   <path d="m1 555c-0.11319-0.0639-0.22807-0.12485-0.33957-0.19164-0.005614-3e-3 0.013088 0 0.019632 0 0.03705 0 0.060897-2e-3 0.091258-0.017 0.043991-0.022 0.19575-0.11078 0.22929-0.14432 0.055267-0.0553 0.10745-0.0744 0.16787-0.11979 0.091385-0.0687 0.17657-0.15122 0.2717-0.21464 0.031349-0.0209 0.066126-0.0273 0.093252-0.0544 0.035357-0.0354 0.10225-0.0587 0.14509-0.0824 0.0877-0.0486 0.16271-0.11789 0.25552-0.1487 0.064814-0.0215 0.12317-0.043 0.18321-0.0728 0.033463-0.0166 0.098393-7e-3 0.13528-0.0196 0.028598-9e-3 0.0704-0.0592 0.096319-0.0768 0.058632-0.04 0.13534-0.0506 0.19463-0.0903 0.01933-0.0129 0.030915-0.0375 0.050307-0.0503 0.04132-0.0272 0.095051-0.0386 0.13581-0.0589 0.043816-0.0219 0.22308-0.15301 0.24402-0.19241 0.040304-0.0758 0.041905-0.18933 0.01089-0.27561-0.019701-0.05493 0.016817-0.13811 0.01549-0.19039"/>
   <path d="m1 564c-0.006314-0.0287 0.00971-0.0923-0.018942-0.086-0.028655 6e-3 -8.1092e-4 0.0643 0.018942 0.086 0.029455 0.0324 0.077829 0.0401 0.11572 0.062 0.016698 0.01 0.10761 0.11448 0.11641 0.13075 0.00233 4e-3 0 0.01 0 0.0147 0.00654 0.0127 0.01164 0.0262 0.019632 0.038 0.019606 0.029 0.43616 0.513 0.44701 0.51901 0.00951 5e-3 0.027423-5e-3 0.037193 0 0.01499 7e-3 0.03924 0.054 0.050767 0.0627 0.080555 0.06108 0.1099 0.0843 0.21327 0.17284"/>
   <path d="m12 554c0.13382-0.15941 0.27044-0.3165 0.40146-0.47822 0.0029-4e-3 -0.0094 0-0.01403 0h-0.07561c-0.03639 0-0.0485-0.0103-0.07661-0.0196-0.04107-0.0137-0.09582 0.0137-0.13689 0-0.22426-0.0747-0.54478-0.0899-0.77584-0.0272-0.03162 9e-3 -0.07313-0.0104-0.10422 0-0.05641 0.0188-0.1108 0.0367-0.17178 0.0367-0.07851 0-0.15596 0.0194-0.23773 0.0194-0.14768 0-0.65722-0.0382-0.77247 0.0194-0.02428 0.0121-0.070368-9e-3 -0.095705 0-0.00877 3e-3 -0.010657 0.0174-0.019632 0.0196-0.061398 0.0154-0.15254 0-0.21495 0-0.066934 0-0.5086 0.0229-0.5694 0-0.038085-0.0143-0.052384-0.0194-0.093712-0.0194h-1.5146c-0.022131 0-0.57886 0.0179-0.61166 0-0.10747-0.0587-0.29004-0.064-0.41656-0.0961-0.095526-0.0243-0.23219 0-0.3309 0-0.05355 0-0.037951 7.8e-4 -0.077531-0.0194-0.054435-0.0278-0.19794 0-0.26196 0-0.082752 0-0.21721 6e-3 -0.28727-0.0279-0.042384-0.0208-0.11675 0.0149-0.1615 0-0.048488-0.0162-0.091164-0.0213-0.13857-0.0388-0.043042-0.0159-0.7417-0.0168-0.80844 0-0.045342 0.0114-0.088744 0.0324-0.13689 0.0393-0.099852 0.0143-0.21169 0-0.31396 0-0.19661 0-0.37639 0.0208-0.56143-0.0314-0.18131-0.05115-0.2807-0.2513-0.42156-0.37638"/>
   <path d="m13 555c-0.28343-0.13868 0.36745-0.31205 0.45851-0.176 0.04351 0.065 0.03767 0.15131 0.07278 0.21181 0.02452 0.0423-1e-3 0.0925 0.0194 0.13321 0.07691 0.15351-0.0109 0.51019 0.0194 0.69202 0.01725 0.10352 0.03341 0.21249 0.0589 0.31411 0.02256 0.09 0.0042 0.20487 0.03926 0.3102 0.02923 0.0877 0 0.24093 0 0.33375v0.70728c0 0.19512 0.03978 0.58058-0.01963 0.75813-0.02537 0.0758 0 0.37978 0 0.48443v1.1811c0 0.21245 0.03839 0.47145-0.03267 0.6694-0.01391 0.0388 0 0.113 0 0.15291 0 0.11499 0.02877 0.64831 0 0.73313-0.05039 0.14856 0.02031 0.4355-0.01933 0.53735-0.03951 0.10151-0.0084 0.23321-0.05483 0.32438-0.02238 0.044 0.02406 0.12536 0 0.16826-0.04227 0.0754-0.02684 0.51474-0.02684 0.62484 0 0.45067 0.02817 0.91028-0.0783 1.3374-0.01067 0.0428 0.01076 0.0936 0 0.13642-0.01834 0.0729-0.03405 0.2517-0.05859 0.29924-0.02626 0.0509 0.04202 0.1937 0.05476 0.24225 0.01371 0.0523-0.01711 0.11949 0 0.17063 0.0047 0.014 0.02627 0.0361 0.01963 0.056-0.0083 0.0249-0.03116-5e-3 -0.03597-0.01-0.13865-0.13089-0.27765-0.26152-0.41648-0.39232"/>
   <path d="m13 565c-0.03474 0.15358-0.06363 0.3086-0.10422 0.46074-4.81e-4 2e-3 -0.04529 0-0.05046 0-0.02328 0-0.09514 0.0181-0.11794 0.0297-0.04147 0.0211-0.11222-0.018-0.15537 0-0.041 0.0171-0.06102 0.0187-0.10568 0.0187-0.07705 0-0.43943 0.0365-0.48781 0.01-0.02143-0.0118-0.1133-0.0442-0.14088-0.0265-0.06963 0.0445-0.39676 0.0494-0.46273 0.0204-0.0667-0.0293-0.5435 0-0.66411 0h-0.64862c-0.01286 0-0.03696-0.0196-0.03796-7e-3 -0.012807 0.16437-0.016155 0.32931-0.024233 0.49396"/>
   <path d="m8 566c0.080879-0.14174 0.1666-0.28083 0.24264-0.42523 2.75e-4 -5.2e-4 -0.13908 0.0196-0.15422 0.0196-0.14976 0 0.015487-9e-3 -0.098159 0.0196-0.11392 0.0285-0.273 0-0.39195 0-0.12188 0-0.2373 0.0103-0.35192 0.039-0.11467 0.0288-0.32456 0-0.44778 0-0.10713 0-0.47024-0.0288-0.55636 0-0.054572 0.0183-0.075854 0.0196-0.13689 0.0196-0.36533 0-0.71515 0.0161-1.0557-0.0913-0.072138-0.0228-0.15232-0.0145-0.22531-0.039-0.040897-0.0137-0.095617 0.0137-0.1365 0-0.082559-0.0277-0.16917-0.0355-0.25951-0.0587-0.042293-0.0109-0.092763 0.0106-0.13512 0-0.028387-7e-3 -0.050778-0.03-0.078528-0.0393-0.047166-0.0158-0.10807 0.0121-0.15652 0-0.1209-0.0302-0.2545-0.0196-0.38236-0.0196-0.045302 0-0.057683-8e-3 -0.092485-0.0194-0.089263-0.0295-0.57209 0-0.7089 0-0.052457 0-0.1245-0.0129-0.17569 0-0.10265 0.0258-0.20963 0.0612-0.31334 0.0785-0.076465 0.0127-0.15973 7.3e-4 -0.23512 0.0196-0.025815 6e-3 -0.1793 0.039-0.17929 0.039 0.0068322 0.15288 0.019325 0.30518 0.028988 0.45763"/>
   <path d="m14 566 2 1.7999"/>
   <path d="m1 556c-0.023722 0.0636-0.050859 0.12598-0.071166 0.19072-0.005447 0.0174 0.036401 0 0.054601 0h0.15169c0.040177 0 0.047214 5e-3 0.085046 0.0184 0.021456 8e-3 0.37311 0.0178 0.42247 0.0178 0.037197 0-0.00805-4e-3 0.035506 0.0194 0.02656 0.0142 0.10249 0 0.13206 0 0.01622 0 0.043018 0.0111 0.056979 0.0176 0.00671 3e-3 0.01239 0.0223 0.015721 0.0157 0.045429-0.09022 0.078067-0.18639 0.1171-0.27962"/>
   <path d="m2 557c0.05864 0.0635 0.11456 0.12962 0.17592 0.19049 0.010746 0.0107 0.070383 0 0.089954 0 0.099195 0 0.23046-0.0253 0.326 0 0.040366 0.0107 0.073608 0.0284 0.11595 0.0393 0.046103 0.0119 0.10137-9e-3 0.14801 0 0.10309 0.0206 0.20589 0.0221 0.3092 0.0393 0.26094 0.0435 0.53196 0.0931 0.80123 0.0393 0.072531-0.0145 0.14228-1e-3 0.21595-0.0196 0.072111-0.0181 0.16019 0.0105 0.23359 0 0.064766-9e-3 0.13032-0.0283 0.19578-0.0393 0.22872-0.0381 0.45972 0.0578 0.6885 0.0196 0.30584-0.051 0.66474-0.0345 0.97508 0 0.093557 0.0104 0.20338-0.0228 0.29448 0 0.29639 0.0741 0.60652 0.0728 0.91097 0.10046 0.11484 0.0104 0.23947-0.019 0.35337 0 0.097461 0.0162 0.19411 0.0514 0.29448 0.0589 0.1699 0.0127 0.34663 3e-3 0.51656 0.0196 0.19468 0.0195 0.01923 0.0117 0.15706 0.0393 0.073484 0.0147 0.18004 0 0.25445 0h1.1561c0.15463 0 0.31937 0.0171 0.46641-0.0196 0.07772-0.0194 0.1642 0.0208 0.23351-0.0178 0.07641-0.0425 0.50601 0.0468 0.63351-0.0314 0.19964-0.12272-0.14715 0.1583 0.45391-0.41855"/>
   <path d="m1 559c0.042817 0.10813 0.080404 0.21848 0.12845 0.32439 0.00189 4e-3 0.11308 0 0.15736 0 0.08764 0 0.14892 2.3e-4 0.22469 0.0364 0.036793 0.0176 0.082964 4.2e-4 0.12094 0.0194 0.043061 0.0215 0.16444 0 0.21396 0 0.13681 2e-5 0.10051-0.25452 0.1546-0.38019"/>
   <path d="m2 560c0.09862 0.0946 0.18904 0.19848 0.29586 0.28367 0.010545 8e-3 0.022808-0.0149 0.035506-0.0194 0.06012-0.0215 0.16761 0 0.23252 0 0.2965 0 0.75069 0.0476 1.0113-0.0393 0.093395-0.0311 0.27361 0.01 0.39072-0.0196 0.14451-0.0361 0.48051 0.0178 0.60276 0.0589 0.049344 0.0166 0.12239 6e-3 0.17569 0.0196 0.089558 0.0224 0.21968 0 0.31242 0h0.78428c0.08432 0 0.15476 6e-3 0.23558 0.0196 0.17989 0.03 0.53213 0 0.7227 0 0.10071 0 0.21315 0.0142 0.31288 0 0.42692-0.061 0.83268-0.11749 1.2691-0.11749 0.11331 0 0.31205-0.0271 0.41802 0 0.060704 0.0155 0.11765 0.0246 0.17646 0.0393 0.042447 0.0106 0.096087-0.0138 0.13742 0 0.041698 0.0139 0.092392 0.0276 0.14018 0.0363 0.11144 0.0203 0.22313-0.0174 0.33129 0.0193 0.093497 0.0318 0.38223-0.0383 0.45115 0 0.13553 0.0754 0.29118 0.0687 0.4207 0.13328 0.02962 0.0148 0.07786 2e-3 0.10928 0.0157 0.06231 0.0279 0.1625-0.0169 0.22914 0 0.03977 0.0101 0.1049 0.0378 0.14471 0.0378 0.18463 0 0.44561 0.0408 0.60307-0.0357 0.0459-0.0223 0.11278 0.0108 0.15951-0.0135 0.01657-9e-3 0.13324 0.0144 0.13903 0 0.055566-0.13839 0.10583-0.27894 0.15874-0.41846"/>
   <path d="m1 562c-0.04591 0.0693-0.095498 0.13625-0.13773 0.20782-0.002113 4e-3 0.059159 2e-3 0.10652 0.0181 0.076061 0.0253 0.17127 0.0321 0.25008 0.0321 0.042487 0-0.00897-4e-3 0.0375 0.0193 0.040347 0.0205 0.15357 6e-3 0.21442 0.0381 0.032185 0.0168 0.090527-0.0167 0.12278 0 0.062333 0.0323 0.35622 0.0752 0.43183 0.0752 0.21215 0 0.41433 0.0119 0.61511-0.038 0.042412-0.0105 0.09183 9e-3 0.13474 0 0.098223-0.0197 0.022394-0.0136 0.098159-0.0393 0.076231-0.0258 0.38875 0 0.48972 0 0.06407 0 0.4278 4e-3 0.45529 0.018 0.04031 0.0202 0.056351 0.0372 0.1036 0.0372 0.010155 0-0.027297 0.0273-0.025 0.0174 0.03012-0.12966 0.068661-0.25726 0.10299-0.38592"/>
   <path d="m4 563c0.075 0.12467 0.14541 0.25221 0.225 0.374 0.01039 0.0159 0.037986 0 0.056979 0h1.0772c0.062456 0 0.27437 0.0243 0.32293 0 0.080211-0.0401 0.19375-0.0283 0.28397-0.0589 0.084111-0.0285 0.22417 0.0405 0.30268 0 0.054014-0.0279 0.12118-0.0381 0.1875-0.0381 0.045567 0-0.00949 5e-3 0.038727-0.0193 0.047419-0.0235 0.11739 0.0101 0.16595-0.0148 0.034472-0.0177 0.090512 0.0161 0.12784 0.0161 0.020965 0 0.15003 8e-3 0.1523 0 0.024626-0.08506 0.039263-0.17268 0.058895-0.259"/>
   <path d="m8 563c0.04862 0.14036 0.093416 0.28211 0.14586 0.42109 0.00571 0.0151 0.032892-4e-3 0.048543 0 0.085002 0.0223 0.00806 0.0196 0.057285 0.0196 0.06512 0 0.16199 0.0229 0.2306 0.0315 0.045582 6e-3 0.11288-0.0148 0.15683 0 0.039879 0.0134 0.055096 0.0196 0.097623 0.0196 0.070648 0 0.20923 9.4e-4 0.20936 0 0.022594-0.1633 0.035941-0.32783 0.053911-0.49179"/>
  </g>
  <circle cx="12.793" cy="12.772" rx="1.7931" ry="1.7716" fill="#fff" fill-rule="evenodd"/>
 </g>
 <text x="5" y="14.382557" fill="#000000" font-family="monospace" font-size="1.3333px" style="font-variant-caps:normal;font-variant-east-asian:normal;font-variant-ligatures:normal;font-variant-numeric:normal;line-height:1.25" xml:space="preserve"><tspan x="5" y="14.382557" font-family="monospace" font-size="1.3333px" style="font-variant-caps:normal;font-variant-east-asian:normal;font-variant-ligatures:normal;font-variant-numeric:normal">ODBC</tspan></text>
 <g fill="none" stroke="#000" stroke-width="1px">
  <path d="m2 12c0.046927 0.09595 0.1502-0.05648 0.21954-0.03243 0.048295 0.01675 0.091043 0.02042 0.13815 0.03802 0.036223 0.01353 0.087371-0.01321 0.12374 0 0.24015 0.0872 0.61817 0.04007 0.88822 0.04007 0.34163 0 0.66726 0.01991 1.0072 0.01991 0.10197 0 0.45345-0.02908 0.53786 0 0.23755 0.08185 0.52772 0.08005 0.79463 0.08005 0.062432 0 0.095045-0.0042 0.15586-0.01992 0.11235-0.02895 0.32481 0 0.44868 0h0.24567c0.017154 0 0.13441 8.96e-4 0.13216-0.0065-0.00468-0.01533-0.081049-0.04717-0.096899-0.05447-0.056977-0.02624-0.16625 0.10567-0.18852 0.13909-0.026524 0.03979-0.020151 0.07696-0.020151 0.12091 0 0.0246 0.00414-0.06216-0.018656-0.0714-0.00163-6.61e-4 0.029113 0.05877 0.038807 0.06848 0.011311 0.01133 0.017962 0.03523 0.033926 0.03401 0.015479-0.0012 0.05564-0.04728 0.072261-0.05534 0.064013-0.03102 0.16885 0.01444 0.24103 0 0.037496-0.0075 0.082912-0.05906 0.11815-0.07903 0.023773-0.01347 0.061802-9e-3 0.085957-0.01779 0.00144-5.24e-4 0.037444-0.03829 0.039358-0.03944 0.00306-0.0018 0.28137-0.02713 0.33391-0.0403 0.024582-0.0062 0.64136-0.02256 0.6505-0.01881 0.073552 0.03016 0.24651 0.03911 0.31825 8.66e-4 0.041514-0.02214 0.25936 0 0.31699 0h0.73638c0.087391 0 0.21034-0.02208 0.29676 0 0.025376 0.0065 0.22067 0.04912 0.22953 0.03936 0.042323-0.046586 0.080447-0.096871 0.12067-0.14533"/>
  <path d="m2.2832 12c-0.11379-0.13283-0.21803-0.31928-0.37728-0.41467-0.027712-0.0166-0.04302-0.05667-0.071631-0.07163-0.010439-0.0055-0.024861 0.0054-0.035343 0-0.027531-0.01412-0.04194-0.05783-0.070214-0.07022-0.032184-0.0141-0.075459-0.03428-0.10808-0.05628-0.10128-0.0683-0.16797-0.19-0.26889-0.25811-0.032197-0.02173-0.073801-0.03131-0.10375-0.04841-0.019091-0.0109-0.029211-0.03876-0.048725-0.0488-0.059816-0.0308-0.133-0.020467-0.19931-0.03188"/>
  <path d="m1 11c0.19465-0.02105 0.35731-0.06759 0.51102-0.17081 0.045816-0.03077 0.10976-0.08208 0.16082-0.10036 0.037727-0.01351 0.081052-0.0229 0.11579-0.0403 0.042844-0.02146 0.073812-0.07689 0.11839-0.09918 0.094445-0.04722 0.35114-0.15997 0.40531-0.24953 0.042869-0.070882 0.018656-0.26605 0.018656-0.33982"/>
  <path d="m3 10c-0.01165-0.00748-0.027472-0.034084-0.03495-0.022434-0.019269 0.030018 0.45517-0.01825 0.48756 0 0.077646 0.043752 0.26827 0.015225 0.31628 0.040066 0.16024 0.08291 0.52101 0.04007 0.71245 0.04007h1.7456c0.30377 0 0.63432-0.03057 0.91782 0.0403 0.078727 0.01968 0.16117 0.01387 0.2389 0.0403 0.072831 0.02476 0.18804-0.03286 0.25748 0 0.09018 0.04269 0.26121 0.03612 0.37327 0.07399 0.04973 0.01681 0.090541-0.0052 0.13759 0.01991 0.012597 0.0067 0.40685 0.0065 0.41971 0 0.035347-0.01793 0.066556-0.01859 0.10532-0.03125 0.030645-0.01001 0.058291-0.04097 0.08761-0.05534 0.0479-0.02347 0.17238 0 0.22764 0 0.12881 0 0.34599 0.03664 0.45836-0.01621 0.085181-0.04006 0.37745 0.03551 0.49536-0.02015 0.036737-0.017338 0.037307-0.072216 0.053999-0.10925"/>
  <path d="m10 12c0.0041 0.01438-0.00194 0.04728 0.01244 0.04314 0.014376-0.00415-0.021542-0.031262-0.01244-0.04314 0.01902-0.02482 0.13853-0.0973 0.17121-0.15176 0.03934-0.06556 0.07497-0.14026 0.12091-0.20151 0.05787-0.07716 0.15396-0.13598 0.20041-0.22056 0.0097-0.01769 0.02035-0.08153 0.03936-0.09391 0.01126-0.0073 0.02687 0 0.0403 0 0.01343-0.0067 0.0278-0.01183 0.0403-0.02015 0.18142-0.12078 0.1542-0.24849 0.38752-0.3121"/>
  <path d="m11 11c-0.06476-0.04369-0.13042-0.08606-0.19427-0.13106-0.02373-0.01672-0.04673-0.06209-0.05982-0.07816-0.0533-0.06546-0.23276-0.24129-0.29258-0.27243-0.10021-0.05218-0.33795-0.19933-0.41719-0.27857-0.0053-0.0053-0.1356-0.12937-0.13311-0.13311 0.026628-0.040001 0.064648-0.07111 0.096974-0.10666"/>
  <path d="m4 9.3933c-0.045865-0.029256-0.093763-0.055546-0.13759-0.087768-0.00344-0.00253 0-0.040882 0-0.045419 0-0.051577-0.018361-0.27416 0-0.30833 0.038174-0.071028 0.01868-0.16516 0.057384-0.23575 0.013866-0.025292-0.014449-0.074595 0-0.099496 0.018758-0.032327 0.042978-0.077249 0.056124-0.11571 0.014697-0.043001-0.02156-0.11585 0-0.15531 0.055915-0.10233 0.032669-0.31573 0.08454-0.41947 0.016301-0.032602-0.017792-0.092331 0-0.12398 0.015492-0.027556 0.073721-0.4336 0.055022-0.46741-0.021336-0.038581-0.034728-0.083447-0.050771-0.12862-0.012545-0.035322 0.018908-0.098114 0-0.12972-0.068425-0.11439 0.032958-0.44607-0.015586-0.57021-0.021193-0.054198-0.014525-0.1097-0.039122-0.15798-0.019842-0.038952 0.015421-0.106 0-0.1472-0.012648-0.033793-0.020151-0.044781-0.020151-0.085485 0-0.084194-0.035529-0.27988-0.00669-0.35469 0.037559-0.097435 0.038019-0.19391 0.038019-0.30313 0-0.038955 0.015469-0.17199-0.021174-0.17199"/>
  <path d="m4.2882 4.7509c0.11938 0.013257 0.47587-0.048753 0.58194-0.010391 0.086572 0.03131 0.16502 0.035909 0.25527 0.058407 0.09644 0.024039 0.18626 0.056757 0.27912 0.080132 0.034137 0.00859 0.07522-0.00899 0.10926 0 0.10865 0.028693 0.21915 0.0332 0.32628 0.059981 0.12231 0.030577 0.42444 0 0.56116 0 0.1185 0 0.68047-0.026059 0.75535 0 0.076004 0.02645 0.16253-0.00479 0.23607 0.019915 0.064704 0.021738 0.20586 0.040302 0.2781 0.040302 0.059864 0 0.206-0.026774 0.25976 0 0.096646 0.048132-0.09441-0.012722 0.060217 0.039988 0.06744 0.022989 0.57905 0.00719 0.65412-0.020151 0.080352-0.029261 0.42472 0 0.52708 0 0.093915 0 0.36795 0.00375 0.37028 0 9.21e-4 -0.00148-0.038238-0.037474-0.038807-0.038728-0.011567-0.025492 0.057944-0.00254 0.082415-0.016137 0.026002-0.014446 0.05477-0.030404 0.086744-0.038728 0.068882-0.017932 0.17415 0 0.24339 0 0.00671 0 0.042609-0.0041 0.045655 0 0.016662 0.022445 0.02561 0.049696 0.038414 0.074544"/>
 </g>
 <ellipse cx="7.5012" cy="3.3757" rx="1.2835" ry="1.6243" fill="#0ff" opacity=".99" stroke="#0ff"/>
 <ellipse cx="10" cy="2.8817" rx="8.8818e-16" ry=".11835" opacity=".99" stroke="#0ff"/>
 <path d="m10 4.7752c0.04796 0.028521 0.10189 0.048824 0.14389 0.085564 0.01011 0.00884 0 0.026868 0 0.040302v2.2556c0 0.10302 0.02436 0.76572 0 0.83879-0.03857 0.11572-0.06022 0.25383-0.06022 0.37988 0 0.065873 3e-3 -0.054508-0.02015 0.060453-0.0079 0.039097 0.0066 0.080312 0 0.11965-0.01418 0.084701-0.0403 0.17747-0.0403 0.26149 0 0.20586 0.02984 0.44074-0.01984 0.64003-0.00842 0.033788 0.01522 0.085275 0 0.11571-0.039908 0.079815-0.0187 0.19465-0.059037 0.27417-0.00618 0.01219 0.00632 0.034092 0 0.046206-0.019536 0.03744-0.052425 0.080691-0.076118 0.11618-0.00519 0.0078-0.029164 0.02049-0.019836 0.01984 0.051335-0.003622 0.10107-0.01942 0.15161-0.029128" fill="none" stroke="#000" stroke-width="1px"/>
 <path d="m13.902 1.0099c-0.3514 0-0.67198 0.069306-0.91406 0.19141s-0.42383 0.30863-0.42383 0.54492 0.18175 0.42282 0.42383 0.54492 0.56266 0.19141 0.91406 0.19141 0.67003-0.069306 0.91211-0.19141 0.42383-0.30863 0.42383-0.54492-0.18175-0.42282-0.42383-0.54492-0.56071-0.19141-0.91211-0.19141zm0 0.25195c0.31693 0 0.60293 0.067208 0.79883 0.16602 0.1959 0.098808 0.28516 0.21756 0.28516 0.31836s-0.08926 0.21955-0.28516 0.31836c-0.1959 0.098807-0.48189 0.16602-0.79883 0.16602s-0.60293-0.067208-0.79883-0.16602c-0.1959-0.098808-0.28516-0.21756-0.28516-0.31836s0.08926-0.21955 0.28516-0.31836c0.1959-0.098807 0.48189-0.16602 0.79883-0.16602z" color="#000000" color-rendering="auto" dominant-baseline="auto" image-rendering="auto" shape-rendering="auto" solid-color="#000000" stop-color="#000000" stroke-width=".1" style="font-feature-settings:normal;font-variant-alternates:normal;font-variant-caps:normal;font-variant-east-asian:normal;font-variant-ligatures:normal;font-variant-numeric:normal;font-variant-position:normal;font-variation-settings:normal;inline-size:0;isolation:auto;mix-blend-mode:normal;shape-margin:0;shape-padding:0;text-decoration-color:#000000;text-decoration-line:none;text-decoration-style:solid;text-indent:0;text-orientation:mixed;text-transform:none;white-space:normal"/>
 <path d="m13.903 4.355c-0.3514 0-0.67198 0.069306-0.91406 0.19141s-0.42383 0.30863-0.42383 0.54492 0.18175 0.42282 0.42383 0.54492 0.56266 0.19141 0.91406 0.19141 0.67003-0.069306 0.91211-0.19141 0.42383-0.30863 0.42383-0.54492-0.18175-0.42282-0.42383-0.54492-0.56071-0.19141-0.91211-0.19141zm0 0.25195c0.31693 0 0.60293 0.067208 0.79883 0.16602 0.1959 0.098808 0.28516 0.21756 0.28516 0.31836s-0.08926 0.21955-0.28516 0.31836c-0.1959 0.098807-0.48189 0.16602-0.79883 0.16602s-0.60293-0.067208-0.79883-0.16602c-0.1959-0.098808-0.28516-0.21756-0.28516-0.31836s0.08926-0.21955 0.28516-0.31836c0.1959-0.098807 0.48189-0.16602 0.79883-0.16602z" color="#000000" color-rendering="auto" dominant-baseline="auto" image-rendering="auto" shape-rendering="auto" solid-color="#000000" stop-color="#000000" stroke-width=".1" style="font-feature-settings:normal;font-variant-alternates:normal;font-variant-caps:normal;font-variant-east-asian:normal;font-variant-ligatures:normal;font-variant-numeric:normal;font-variant-position:normal;font-variation-settings:normal;inline-size:0;isolation:auto;mix-blend-mode:normal;shape-margin:0;shape-padding:0;text-decoration-color:#000000;text-decoration-line:none;text-decoration-style:solid;text-indent:0;text-orientation:mixed;text-transform:none;white-space:normal"/>
 <path d="m8.3775 1.2494h4.1319" fill="#00f" stroke="#00f" stroke-width="1px"/>
 <g fill="none" stroke="#000" stroke-width="1px">
  <path d="m10.626 5.4912h1.9175"/>
  <path d="m9.3547 2.7931 0.99622 0.014956"/>
  <path d="m11.27 2.9296 1.0952 0.0159"/>
  <path d="m14.034 5.9344c-3.034 5.0657-3.034 5.0656-3.034 5.0656"/>
 </g>
</svg>
