/* XPM */
static const char *table[] = {
/* columns rows colors chars-per-pixel */
"16 16 230 2 ",
"   c gray100",
".  c #FDFDFD",
"X  c #FEFEFE",
"o  c #FEFEFE",
"O  c #FDFDFD",
"+  c gray100",
"@  c #FDFDFD",
"#  c gray100",
"$  c #FEFEFE",
"%  c gray100",
"&  c gray100",
"*  c #FEFEFE",
"=  c gray100",
"-  c #FEFEFE",
";  c #FEFEFE",
":  c gray100",
">  c #FEFEFE",
",  c gray100",
"<  c #FEFEFE",
"1  c #EEEEEE",
"2  c #A5A5A5",
"3  c gray58",
"4  c #959595",
"5  c gray59",
"6  c gray58",
"7  c gray59",
"8  c gray58",
"9  c gray58",
"0  c #A4A4A4",
"q  c gray93",
"w  c gray73",
"e  c gray46",
"r  c #C0C0C0",
"t  c #BBBBBB",
"y  c gray74",
"u  c gray74",
"i  c #BBBBBB",
"p  c gray",
"a  c gray",
"s  c gray74",
"d  c #747474",
"f  c gray73",
"g  c gray70",
"h  c #8E8E8E",
"j  c #EFEFEE",
"k  c gray92",
"l  c #EEEEEE",
"z  c #ECECEC",
"x  c gray93",
"c  c gray92",
"v  c gray92",
"b  c gray93",
"n  c gray93",
"m  c gray92",
"M  c #EEEEEE",
"N  c #8E8E8E",
"B  c gray70",
"V  c gray71",
"C  c gray30",
"Z  c #797979",
"A  c #777777",
"S  c #727272",
"D  c gray32",
"F  c gray46",
"G  c gray47",
"H  c #777777",
"J  c gray46",
"K  c gray32",
"L  c #727271",
"P  c gray47",
"I  c gray47",
"U  c #4E4E4D",
"Y  c #B6B6B6",
"T  c gray70",
"R  c gray58",
"E  c gray99",
"W  c #F6F6F6",
"Q  c gray90",
"!  c #747474",
"~  c #EEEEEE",
"^  c #F9F9F9",
"/  c #F6F6F6",
"(  c #EFEFEF",
")  c #747474",
"_  c gray89",
"`  c #F9F9F9",
"'  c #F9F9F9",
"]  c #939393",
"[  c gray70",
"{  c #B4B4B4",
"}  c DimGray",
"|  c #A9A9A9",
" . c #A9A9A9",
".. c gray61",
"X. c #505050",
"o. c gray64",
"O. c #A7A7A7",
"+. c #A9A9A9",
"@. c gray64",
"#. c gray31",
"$. c gray61",
"%. c gray66",
"&. c #AAAAAA",
"*. c DimGray",
"=. c #B4B4B4",
"-. c gray71",
";. c #696968",
":. c #ACACAC",
">. c gray66",
",. c #9B9B9B",
"<. c gray31",
"1. c gray63",
"2. c #AAAAAA",
"3. c #A7A7A7",
"4. c gray64",
"5. c gray31",
"6. c #9A9A9A",
"7. c gray67",
"8. c #A9A9A9",
"9. c #686868",
"0. c gray71",
"q. c gray70",
"w. c gray58",
"e. c gray98",
"r. c gray97",
"t. c gray90",
"y. c gray46",
"u. c #EFEFEF",
"i. c gray97",
"p. c gray97",
"a. c #EFEFEF",
"s. c gray46",
"d. c gray90",
"f. c gray97",
"g. c gray98",
"h. c gray58",
"j. c gray70",
"k. c gray71",
"l. c #4E4E4D",
"z. c #797978",
"x. c gray47",
"c. c gray43",
"v. c gray22",
"b. c gray45",
"n. c #777777",
"m. c gray47",
"M. c gray45",
"N. c gray22",
"B. c gray43",
"V. c gray47",
"C. c #797A7A",
"Z. c #4E4E4E",
"A. c #B6B6B6",
"S. c gray70",
"D. c #8E8E8E",
"F. c gray94",
"G. c gray92",
"H. c #DBDBDA",
"J. c #6F6F6F",
"K. c gray89",
"L. c #EEEEEE",
"P. c gray92",
"I. c gray90",
"U. c gray44",
"Y. c #D9DADA",
"T. c #EBE4E5",
"R. c #E9D9D9",
"E. c #8C8E8E",
"W. c gray70",
"Q. c #B9B9B9",
"!. c #767676",
"~. c gray74",
"^. c gray74",
"/. c #AEAEAD",
"(. c #585858",
"). c #B7B7B7",
"_. c #BBBBBB",
"`. c gray74",
"'. c gray71",
"]. c #585858",
"[. c gray69",
"{. c #E59C9F",
"}. c #F47E82",
"|. c #827878",
" X c #B9BABA",
".X c #EEEEEE",
"XX c gray64",
"oX c gray59",
"OX c gray58",
"+X c #959595",
"@X c #909090",
"#X c gray58",
"$X c #979797",
"%X c gray58",
"&X c gray59",
"*X c #909090",
"=X c #969595",
"-X c #D97B7E",
";X c #EB5B61",
":X c #B8A5A6",
">X c #EEEFEF",
",X c #FEFEFE",
"<X c gray100",
"1X c #FEFEFE",
"2X c #FEFEFE",
"3X c gray100",
"4X c #FEFEFE",
"5X c gray100",
"6X c #FEFEFE",
"7X c #FEFEFE",
"8X c gray100",
"9X c #FEFEFE",
"0X c gray100",
"qX c #FBEBEC",
"wX c #FAD7D9",
"eX c gray100",
"rX c #FDFDFD",
"tX c gray100",
"yX c #FEFEFE",
"uX c #FDFDFD",
"iX c gray100",
"pX c #FDFDFD",
"aX c #FEFEFE",
"sX c #FEFEFE",
"dX c #FEFEFE",
"fX c #FDFDFD",
"gX c gray100",
"hX c #FDFDFD",
"jX c #FEFEFE",
"kX c gray100",
/* pixels */
"  . X o O + @ X o O + @ X o O # ",
"$ % & * = - ; : * = - ; : > , < ",
"1 2 3 4 5 6 7 8 4 5 6 7 8 9 0 q ",
"w e r t y u i p t y u i a s d f ",
"g h j k l z x c v b z n m M N B ",
"V C Z A S D F G H J K L P I U Y ",
"T R E W Q ! ~ ^ / ( ) _ ` ' ] [ ",
"{ } |  ...X.o.O.+.@.#.$.%.&.*.=.",
"-.;.:.>.,.<.1.2.3.4.5.6.7.8.9.0.",
"q.w.e.r.t.y.u.i.p.a.s.d.f.g.h.j.",
"k.l.z.x.c.v.b.n.m.M.N.B.V.C.Z.A.",
"S.D.F.G.H.J.K.L.P.I.U.Y.T.R.E.W.",
"Q.!.~.^./.(.)._.`.'.].[.{.}.|. X",
".XXXoXOX+X@X#X$X%X&X*X=X-X;X:X>X",
",X<X1X2X3X4X5X6X7X8X9X0XqXwXeXrX",
"tXyXuXiXpXaXsXuXiXpXaXdXfXgXhXjX"
};
