<?xml version="1.0" encoding="UTF-8"?>
<svg id="SVGRoot" width="16px" height="16px" version="1.1" viewBox="0 0 16 16" xmlns="http://www.w3.org/2000/svg" xmlns:cc="http://creativecommons.org/ns#" xmlns:dc="http://purl.org/dc/elements/1.1/" xmlns:rdf="http://www.w3.org/1999/02/22-rdf-syntax-ns#">
 <metadata>
  <rdf:RDF>
   <cc:Work rdf:about="">
    <dc:format>image/svg+xml</dc:format>
    <dc:type rdf:resource="http://purl.org/dc/dcmitype/StillImage"/>
    <dc:title/>
   </cc:Work>
  </rdf:RDF>
 </metadata>
 <g fill="none" stroke="#000" stroke-width="1px">
  <path d="m0 555c0.16838 0.17165 0.33892 0.34121 0.50514 0.51495 0.013494 0.0141 0 0.11841 0 0.14095 0 0.0791-0.001269 0.16127-0.032822 0.22815-0.036464 0.0773 0.040216 0.29687 0 0.36618-0.063468 0.10938 0.001153 0.24025-0.037423 0.35552-0.052308 0.15631-0.019632 0.36972-0.019632 0.53635v0.99831c0 0.13124-0.052048 0.6208-0.016411 0.71588 0.003248 9e-3 0.015139 0.0115 0.019632 0.0196 0.034599 0.0623-0.034956 0.18272 0 0.24479 0.049593 0.088 0.018098 0.4991 0.018098 0.63558 0 0.2133-0.035515 0.77696 0.03704 0.92431 0.026933 0.0547-0.005654 0.44572-0.019632 0.5125-0.0305 0.14571 0 0.36912 0 0.52132 0 0.20606-0.019632 0.40327-0.019632 0.60751 0 0.22789-0.019632 0.44283-0.019632 0.67194v0.1615c0 0.0327 0.02841 0.11413 0 0.098-0.14088-0.07994-0.27648-0.16888-0.41472-0.25334"/>
  <path d="m1 555c-0.11319-0.0639-0.22807-0.12485-0.33957-0.19164-0.005614-3e-3 0.013088 0 0.019632 0 0.03705 0 0.060897-2e-3 0.091258-0.017 0.043991-0.022 0.19575-0.11078 0.22929-0.14432 0.055267-0.0553 0.10745-0.0744 0.16787-0.11979 0.091385-0.0687 0.17657-0.15122 0.2717-0.21464 0.031349-0.0209 0.066126-0.0273 0.093252-0.0544 0.035357-0.0354 0.10225-0.0587 0.14509-0.0824 0.0877-0.0486 0.16271-0.11789 0.25552-0.1487 0.064814-0.0215 0.12317-0.043 0.18321-0.0728 0.033463-0.0166 0.098393-7e-3 0.13528-0.0196 0.028598-9e-3 0.0704-0.0592 0.096319-0.0768 0.058632-0.04 0.13534-0.0506 0.19463-0.0903 0.01933-0.0129 0.030915-0.0375 0.050307-0.0503 0.04132-0.0272 0.095051-0.0386 0.13581-0.0589 0.043816-0.0219 0.22308-0.15301 0.24402-0.19241 0.040304-0.0758 0.041905-0.18933 0.01089-0.27561-0.019701-0.05493 0.016817-0.13811 0.01549-0.19039"/>
  <path d="m1 564c-0.006314-0.0287 0.00971-0.0923-0.018942-0.086-0.028655 6e-3 -8.1092e-4 0.0643 0.018942 0.086 0.029455 0.0324 0.077829 0.0401 0.11572 0.062 0.016698 0.01 0.10761 0.11448 0.11641 0.13075 0.00233 4e-3 0 0.01 0 0.0147 0.00654 0.0127 0.01164 0.0262 0.019632 0.038 0.019606 0.029 0.43616 0.513 0.44701 0.51901 0.00951 5e-3 0.027423-5e-3 0.037193 0 0.01499 7e-3 0.03924 0.054 0.050767 0.0627 0.080555 0.06108 0.1099 0.0843 0.21327 0.17284"/>
  <path d="m12 554c0.13382-0.15941 0.27044-0.3165 0.40146-0.47822 0.0029-4e-3 -0.0094 0-0.01403 0h-0.07561c-0.03639 0-0.0485-0.0103-0.07661-0.0196-0.04107-0.0137-0.09582 0.0137-0.13689 0-0.22426-0.0747-0.54478-0.0899-0.77584-0.0272-0.03162 9e-3 -0.07313-0.0104-0.10422 0-0.05641 0.0188-0.1108 0.0367-0.17178 0.0367-0.07851 0-0.15596 0.0194-0.23773 0.0194-0.14768 0-0.65722-0.0382-0.77247 0.0194-0.02428 0.0121-0.070368-9e-3 -0.095705 0-0.00877 3e-3 -0.010657 0.0174-0.019632 0.0196-0.061398 0.0154-0.15254 0-0.21495 0-0.066934 0-0.5086 0.0229-0.5694 0-0.038085-0.0143-0.052384-0.0194-0.093712-0.0194h-1.5146c-0.022131 0-0.57886 0.0179-0.61166 0-0.10747-0.0587-0.29004-0.064-0.41656-0.0961-0.095526-0.0243-0.23219 0-0.3309 0-0.05355 0-0.037951 7.8e-4 -0.077531-0.0194-0.054435-0.0278-0.19794 0-0.26196 0-0.082752 0-0.21721 6e-3 -0.28727-0.0279-0.042384-0.0208-0.11675 0.0149-0.1615 0-0.048488-0.0162-0.091164-0.0213-0.13857-0.0388-0.043042-0.0159-0.7417-0.0168-0.80844 0-0.045342 0.0114-0.088744 0.0324-0.13689 0.0393-0.099852 0.0143-0.21169 0-0.31396 0-0.19661 0-0.37639 0.0208-0.56143-0.0314-0.18131-0.05115-0.2807-0.2513-0.42156-0.37638"/>
  <path d="m13 555c-0.28343-0.13868 0.36745-0.31205 0.45851-0.176 0.04351 0.065 0.03767 0.15131 0.07278 0.21181 0.02452 0.0423-1e-3 0.0925 0.0194 0.13321 0.07691 0.15351-0.0109 0.51019 0.0194 0.69202 0.01725 0.10352 0.03341 0.21249 0.0589 0.31411 0.02256 0.09 0.0042 0.20487 0.03926 0.3102 0.02923 0.0877 0 0.24093 0 0.33375v0.70728c0 0.19512 0.03978 0.58058-0.01963 0.75813-0.02537 0.0758 0 0.37978 0 0.48443v1.1811c0 0.21245 0.03839 0.47145-0.03267 0.6694-0.01391 0.0388 0 0.113 0 0.15291 0 0.11499 0.02877 0.64831 0 0.73313-0.05039 0.14856 0.02031 0.4355-0.01933 0.53735-0.03951 0.10151-0.0084 0.23321-0.05483 0.32438-0.02238 0.044 0.02406 0.12536 0 0.16826-0.04227 0.0754-0.02684 0.51474-0.02684 0.62484 0 0.45067 0.02817 0.91028-0.0783 1.3374-0.01067 0.0428 0.01076 0.0936 0 0.13642-0.01834 0.0729-0.03405 0.2517-0.05859 0.29924-0.02626 0.0509 0.04202 0.1937 0.05476 0.24225 0.01371 0.0523-0.01711 0.11949 0 0.17063 0.0047 0.014 0.02627 0.0361 0.01963 0.056-0.0083 0.0249-0.03116-5e-3 -0.03597-0.01-0.13865-0.13089-0.27765-0.26152-0.41648-0.39232"/>
  <path d="m13 565c-0.03474 0.15358-0.06363 0.3086-0.10422 0.46074-4.81e-4 2e-3 -0.04529 0-0.05046 0-0.02328 0-0.09514 0.0181-0.11794 0.0297-0.04147 0.0211-0.11222-0.018-0.15537 0-0.041 0.0171-0.06102 0.0187-0.10568 0.0187-0.07705 0-0.43943 0.0365-0.48781 0.01-0.02143-0.0118-0.1133-0.0442-0.14088-0.0265-0.06963 0.0445-0.39676 0.0494-0.46273 0.0204-0.0667-0.0293-0.5435 0-0.66411 0h-0.64862c-0.01286 0-0.03696-0.0196-0.03796-7e-3 -0.012807 0.16437-0.016155 0.32931-0.024233 0.49396"/>
  <path d="m8 566c0.080879-0.14174 0.1666-0.28083 0.24264-0.42523 2.75e-4 -5.2e-4 -0.13908 0.0196-0.15422 0.0196-0.14976 0 0.015487-9e-3 -0.098159 0.0196-0.11392 0.0285-0.273 0-0.39195 0-0.12188 0-0.2373 0.0103-0.35192 0.039-0.11467 0.0288-0.32456 0-0.44778 0-0.10713 0-0.47024-0.0288-0.55636 0-0.054572 0.0183-0.075854 0.0196-0.13689 0.0196-0.36533 0-0.71515 0.0161-1.0557-0.0913-0.072138-0.0228-0.15232-0.0145-0.22531-0.039-0.040897-0.0137-0.095617 0.0137-0.1365 0-0.082559-0.0277-0.16917-0.0355-0.25951-0.0587-0.042293-0.0109-0.092763 0.0106-0.13512 0-0.028387-7e-3 -0.050778-0.03-0.078528-0.0393-0.047166-0.0158-0.10807 0.0121-0.15652 0-0.1209-0.0302-0.2545-0.0196-0.38236-0.0196-0.045302 0-0.057683-8e-3 -0.092485-0.0194-0.089263-0.0295-0.57209 0-0.7089 0-0.052457 0-0.1245-0.0129-0.17569 0-0.10265 0.0258-0.20963 0.0612-0.31334 0.0785-0.076465 0.0127-0.15973 7.3e-4 -0.23512 0.0196-0.025815 6e-3 -0.1793 0.039-0.17929 0.039 0.0068322 0.15288 0.019325 0.30518 0.028988 0.45763"/>
  <path d="m14 566 2 1.7999"/>
  <path d="m1 556c-0.023722 0.0636-0.050859 0.12598-0.071166 0.19072-0.005447 0.0174 0.036401 0 0.054601 0h0.15169c0.040177 0 0.047214 5e-3 0.085046 0.0184 0.021456 8e-3 0.37311 0.0178 0.42247 0.0178 0.037197 0-0.00805-4e-3 0.035506 0.0194 0.02656 0.0142 0.10249 0 0.13206 0 0.01622 0 0.043018 0.0111 0.056979 0.0176 0.00671 3e-3 0.01239 0.0223 0.015721 0.0157 0.045429-0.09022 0.078067-0.18639 0.1171-0.27962"/>
  <path d="m2 557c0.05864 0.0635 0.11456 0.12962 0.17592 0.19049 0.010746 0.0107 0.070383 0 0.089954 0 0.099195 0 0.23046-0.0253 0.326 0 0.040366 0.0107 0.073608 0.0284 0.11595 0.0393 0.046103 0.0119 0.10137-9e-3 0.14801 0 0.10309 0.0206 0.20589 0.0221 0.3092 0.0393 0.26094 0.0435 0.53196 0.0931 0.80123 0.0393 0.072531-0.0145 0.14228-1e-3 0.21595-0.0196 0.072111-0.0181 0.16019 0.0105 0.23359 0 0.064766-9e-3 0.13032-0.0283 0.19578-0.0393 0.22872-0.0381 0.45972 0.0578 0.6885 0.0196 0.30584-0.051 0.66474-0.0345 0.97508 0 0.093557 0.0104 0.20338-0.0228 0.29448 0 0.29639 0.0741 0.60652 0.0728 0.91097 0.10046 0.11484 0.0104 0.23947-0.019 0.35337 0 0.097461 0.0162 0.19411 0.0514 0.29448 0.0589 0.1699 0.0127 0.34663 3e-3 0.51656 0.0196 0.19468 0.0195 0.01923 0.0117 0.15706 0.0393 0.073484 0.0147 0.18004 0 0.25445 0h1.1561c0.15463 0 0.31937 0.0171 0.46641-0.0196 0.07772-0.0194 0.1642 0.0208 0.23351-0.0178 0.07641-0.0425 0.50601 0.0468 0.63351-0.0314 0.19964-0.12272-0.14715 0.1583 0.45391-0.41855"/>
  <path d="m1 559c0.042817 0.10813 0.080404 0.21848 0.12845 0.32439 0.00189 4e-3 0.11308 0 0.15736 0 0.08764 0 0.14892 2.3e-4 0.22469 0.0364 0.036793 0.0176 0.082964 4.2e-4 0.12094 0.0194 0.043061 0.0215 0.16444 0 0.21396 0 0.13681 2e-5 0.10051-0.25452 0.1546-0.38019"/>
  <path d="m2 560c0.09862 0.0946 0.18904 0.19848 0.29586 0.28367 0.010545 8e-3 0.022808-0.0149 0.035506-0.0194 0.06012-0.0215 0.16761 0 0.23252 0 0.2965 0 0.75069 0.0476 1.0113-0.0393 0.093395-0.0311 0.27361 0.01 0.39072-0.0196 0.14451-0.0361 0.48051 0.0178 0.60276 0.0589 0.049344 0.0166 0.12239 6e-3 0.17569 0.0196 0.089558 0.0224 0.21968 0 0.31242 0h0.78428c0.08432 0 0.15476 6e-3 0.23558 0.0196 0.17989 0.03 0.53213 0 0.7227 0 0.10071 0 0.21315 0.0142 0.31288 0 0.42692-0.061 0.83268-0.11749 1.2691-0.11749 0.11331 0 0.31205-0.0271 0.41802 0 0.060704 0.0155 0.11765 0.0246 0.17646 0.0393 0.042447 0.0106 0.096087-0.0138 0.13742 0 0.041698 0.0139 0.092392 0.0276 0.14018 0.0363 0.11144 0.0203 0.22313-0.0174 0.33129 0.0193 0.093497 0.0318 0.38223-0.0383 0.45115 0 0.13553 0.0754 0.29118 0.0687 0.4207 0.13328 0.02962 0.0148 0.07786 2e-3 0.10928 0.0157 0.06231 0.0279 0.1625-0.0169 0.22914 0 0.03977 0.0101 0.1049 0.0378 0.14471 0.0378 0.18463 0 0.44561 0.0408 0.60307-0.0357 0.0459-0.0223 0.11278 0.0108 0.15951-0.0135 0.01657-9e-3 0.13324 0.0144 0.13903 0 0.055566-0.13839 0.10583-0.27894 0.15874-0.41846"/>
  <path d="m1 562c-0.04591 0.0693-0.095498 0.13625-0.13773 0.20782-0.002113 4e-3 0.059159 2e-3 0.10652 0.0181 0.076061 0.0253 0.17127 0.0321 0.25008 0.0321 0.042487 0-0.00897-4e-3 0.0375 0.0193 0.040347 0.0205 0.15357 6e-3 0.21442 0.0381 0.032185 0.0168 0.090527-0.0167 0.12278 0 0.062333 0.0323 0.35622 0.0752 0.43183 0.0752 0.21215 0 0.41433 0.0119 0.61511-0.038 0.042412-0.0105 0.09183 9e-3 0.13474 0 0.098223-0.0197 0.022394-0.0136 0.098159-0.0393 0.076231-0.0258 0.38875 0 0.48972 0 0.06407 0 0.4278 4e-3 0.45529 0.018 0.04031 0.0202 0.056351 0.0372 0.1036 0.0372 0.010155 0-0.027297 0.0273-0.025 0.0174 0.03012-0.12966 0.068661-0.25726 0.10299-0.38592"/>
  <path d="m4 563c0.075 0.12467 0.14541 0.25221 0.225 0.374 0.01039 0.0159 0.037986 0 0.056979 0h1.0772c0.062456 0 0.27437 0.0243 0.32293 0 0.080211-0.0401 0.19375-0.0283 0.28397-0.0589 0.084111-0.0285 0.22417 0.0405 0.30268 0 0.054014-0.0279 0.12118-0.0381 0.1875-0.0381 0.045567 0-0.00949 5e-3 0.038727-0.0193 0.047419-0.0235 0.11739 0.0101 0.16595-0.0148 0.034472-0.0177 0.090512 0.0161 0.12784 0.0161 0.020965 0 0.15003 8e-3 0.1523 0 0.024626-0.08506 0.039263-0.17268 0.058895-0.259"/>
  <path d="m8 563c0.04862 0.14036 0.093416 0.28211 0.14586 0.42109 0.00571 0.0151 0.032892-4e-3 0.048543 0 0.085002 0.0223 0.00806 0.0196 0.057285 0.0196 0.06512 0 0.16199 0.0229 0.2306 0.0315 0.045582 6e-3 0.11288-0.0148 0.15683 0 0.039879 0.0134 0.055096 0.0196 0.097623 0.0196 0.070648 0 0.20923 9.4e-4 0.20936 0 0.022594-0.1633 0.035941-0.32783 0.053911-0.49179"/>
 </g>
 <circle cx="12.793" cy="12.772" rx="1.7931" ry="1.7716" fill="#fff" fill-rule="evenodd" stroke="#000"/>
 <g fill="none" stroke="#000" stroke-width="1px">
  <path d="m2 2c-0.082771 0.013982 0.050844-0.18021 0.11359-0.16089 0.10778 0.033189 0.20353 0.10703 0.31557 0.13059 0.077679 0.016333 0.14975 0.025099 0.21844 0.059509 0.055939 0.028025 0.61876 0 0.70891 0 0.56008 0 1.1062-0.020151 1.667-0.020151 0.058834 0 0.16009 0.027941 0.22032 0.039987 0.070963 0.014193 0.15948 0 0.23174 0h0.5525c0.075514 0 0.29582 0.024409 0.3676 0 0.10789-0.036689 0.23323-0.019915 0.34934-0.019915 0.055768 0 0.039299 6.231e-4 0.080605-0.020151 0.021225-0.010675 0.35573 0.020151 0.40184 0.020151 0.17187 0 0.36287-0.021287 0.52621 0.019915 0.12994 0.032777 0.2846-0.032594 0.41459 0 0.22525 0.056478 0.5023 0.020151 0.7389 0.020151 0.054772 0 0.42111-0.00786 0.44411-0.019758 0.030172-0.01561 0.042226-0.027089 0.07966-0.039751 0.083717-0.028318 0.84779 0 0.99669 0 0.05981 0 0.1545 0.01909 0.21056 0 0.05991-0.0204 0.11689-0.019435 0.17695-0.03983 0.06959-0.023634 0.18385 0.032879 0.24961 0 0.09354-0.046772 0.37679-0.03983 0.49787-0.03983 0.05607 0 0.30166 0.023462 0.34603 0 0.07497-0.039637 0.72953-0.036661 0.80589 7.872e-4 0.08943 0.043859 0.32977-0.037425 0.44222 0.020151 0.07208 0.036903 0.2401-0.022869 0.3029-0.047308 0.07402-0.028805 0.1593-0.034121 0.22355-0.072969 0.01747-0.010565 0.0918 0.018419 0.12602 0.018419 0.01318 0 0.02914-0.017076 0.03873-0.00803 0.053318 0.050305 0.10133 0.10595 0.152 0.15893"/>
  <path d="m2 2c-0.033008 0.036445-0.063091 0.075771-0.099024 0.10934-0.016669 0.015571-0.1853 0.07035-0.22938 0.099496-0.23091 0.1527-0.45969 0.30186-0.58037 0.54321-0.01017 0.020341-0.077165 0.094389-0.096662 0.10516-0.005075 0.0028-0.046721 0.00827-0.045891 0.016058 0.0048312 0.04532 0.035818 0.083874 0.051323 0.12673"/>
  <path d="m14 1.5288c-0.0024 0.032798-0.01075 0.065705-0.0072 0.098394 0.0029 0.02604 0.04636 0.069599 0.05856 0.094065 0.02134 0.042767 0.01228 0.096115 0.0403 0.13815 0.01044 0.015653 0.0315 0.023082 0.03991 0.039909 0.0318 0.063602 0.05823 0.1339 0.08037 0.20033 9e-3 0.027035 0.04465 0.036742 0.06045 0.060453 0.01178 0.017674 0.0085 0.042707 0.02015 0.060453 0.03219 0.048938 0.09211 0.082988 0.12862 0.12862 0.03026 0.037823 0.05157 0.082134 0.0806 0.12091 0.0713 0.095221 0.1929 0.15844 0.25787 0.25787 0.03443 0.052687 0.05077 0.12032 0.08942 0.17695 0.02825 0.04139 0.0495 0.00224 0.06392 0.011965 0.033292 0.02243 0.058034 0.055416 0.087027 0.083124"/>
  <path d="m1 3c-0.026894 0.033402-0.056598 0.064724-0.080683 0.1002-0.033559 0.049438 0.011354 0.468 0.040066 0.52542 0.026566 0.053132 0 0.3192 0 0.39452 0 0.08395 0.047775 0.19119 0.018577 0.2781-0.006936 0.020646-0.030111 0.040072-0.039987 0.059902-0.013338 0.026782 0.018981 0.053464 0.019128 0.07478 6.086e-5 0.00885-0.014479 0.011053-0.018734 0.018813-0.030812 0.056186 0 0.47463 0 0.56746 0 0.077182 0.027166 0.48946 0 0.537-0.045458 0.079552 0.02034 0.19995-0.019207 0.27889-0.022427 0.044765 0.002162 0.11036-0.019915 0.15208-0.059296 0.11206 0.007825 0.56029 0.04164 0.66082 0.011993 0.03565-0.011895 0.083332 0 0.11902 0.060733 0.1822 0.031108 0.38962 0.077535 0.57643 0.028904 0.1163 0 0.47882 0 0.63114 0 0.23154 0.032805 0.4972-0.040066 0.70812-0.029426 0.085174 0 0.8327 0 0.95584 0 0.32023 0.020151 0.63343 0.020151 0.95411 0 0.15317 0.009554 0.30857-0.020151 0.4571-0.032377 0.16188 0.015612 0.35068-0.059824 0.49614-0.009676 0.01866 0.051797 0.36556 0.059902 0.38988 0.034122 0.10237-0.014739 0.23865 0.020151 0.34139 0.026461 0.07792 0.023363 0.16824 0.058486 0.23819 0.038465 0.07661-0.037234 0.20977 0 0.28708 0.00376 0.0078 0.027364 0.0013 0.024244 0.0094-0.024611 0.063723-0.054208 0.12544-0.081312 0.18818"/>
  <path d="m1 13c0.074806-1.84e-4 0.14985-0.0065 0.22442-5.51e-4 0.00947 7.59e-4 0.015834 0.01169 0.020151 0.02015 0.017954 0.03519 0.027069 0.08078 0.038964 0.11642 0.018613 0.05577 0.11627 0.19003 0.15365 0.24599 0.15142 0.22666 0.46325 0.37749 0.56282 0.618"/>
  <path d="m2.2772 14c0.052136-0.02721 0.10209-0.05909 0.15641-0.08163 0.027601-0.01145 0.47617 0.02015 0.56982 0.02015h1.5933c0.076617 0 0.00448 6e-3 0.080604-0.02015 0.10968-0.03769 0.38637 0.01875 0.51763 0 0.05366-0.0077 0.098218-0.02884 0.14106-0.0403 0.16148-0.0432 0.35633 0.0328 0.52031 0 0.19964-0.03993 0.42373-0.02015 0.63185-0.02015 0.35301 0 0.70919-0.0092 1.0559 0.0403 0.13117 0.01874 0.27036-0.01873 0.40153 0 0.071752 0.01025 0.14837 0.01617 0.21411 0.03983 0.06529 0.0235 0.15403-0.02123 0.22025 0 0.13956 0.04475 0.32777 0.01724 0.47709 0.01724h0.79865c0.20948 0 0.45099 0.03033 0.65232-0.02015 0.11015-0.02762 0.24105 0.02754 0.35123 0 0.14632-0.03658 0.31204-0.02015 0.46599-0.02015h0.78983 0.67577c0.1343 0 0.29398-0.02257 0.42018 0.01826 0.0786 0.02543 0.57143 0 0.70285 0 0.0079 0 0.15401-0.01843 0.1546-0.0181 0.045538 0.025509 0.087741 0.056565 0.13161 0.08485"/>
  <path d="m14 13.681c0.12258-0.05759 0.17354-0.16212 0.22953-0.27535 0.04062-0.08213 0.12045-0.14277 0.1753-0.2156 0.06861-0.0911 0.11239-0.20721 0.19136-0.29046 0.01758-0.01853 0.22083 0.14743 0.27409 0.16593 0.045757 0.015894 0.088145-0.04064 0.12972-0.065491"/>
  <path d="m15 13c-0.02876-0.0067-0.06209-0.0033-0.08627-0.02023-0.01962-0.01377 0-0.23742 0-0.32187 0-0.17152 0.03063-0.60754 0-0.7607-0.0029-0.01473-0.01529-0.02609-0.02015-0.0403-0.02933-0.08583 0.02215-0.1997 0-0.28794-0.03178-0.12664-0.02015-0.26485-0.02015-0.39869v-0.82572c0-0.11788-0.01299-0.24579 0-0.36272 0.02082-0.18742 0.01483 0.011787 0.0403-0.14106 0.01518-0.091084-0.0181-0.19163 0-0.28212 0.0082-0.04082 0.03017-0.080368 0.0403-0.12091 0.0098-0.039099-0.0098-0.081808 0-0.12091 0.0073-0.029143 0.0308-0.052107 0.0403-0.080604 0.01777-0.053309 0-0.14483 0-0.20151 0-0.27437 0.0046-0.53699-0.06045-0.79526-0.0097-0.038663 0-0.098673 0-0.1383 0-0.16105 0.01109-0.32641-0.02015-0.4826-0.02265-0.11324 0.01167-0.34512 0.04007-0.4597 0.02952-0.11914 0-0.33045 0-0.45993 0-0.060697 0.01952-0.16214 0-0.22072-0.02613-0.078403-0.042-0.15116-0.05849-0.23355-0.0062-0.030796 0.0099-0.070544 0-0.10028-0.02116-0.063724-0.02975-0.27341-0.03983-0.29361-0.0547-0.10961-0.01992-0.8139-0.01992-0.97473 0-0.12512 0.0309-0.48208 0-0.57502-0.034-0.10228-0.05325-0.2112-0.08005-0.31809-0.0147-0.058627-5e-3 -0.1214-0.02015-0.18042-0.01788-0.069771 0.01754-0.15313 0-0.223-0.01432-0.05707-0.02015-0.09635-0.02015-0.15735 0-0.020183 0.0089-0.067602 0-0.084776-0.039426-0.076359-0.029284-0.2586-0.029284-0.33738"/>
  <path d="m1.3173 5c0.041483-0.057252 0.075507-0.12073 0.12445-0.17176 0.0093-0.00969 0.026868 0 0.040302 0 0.11184 0 0.34907-0.032286 0.4434 0 0.00899 0.00308 0.013434 0.013434 0.020151 0.020151 0.013277 0.00664 0.025424 0.016335 0.03983 0.019915 0.12983 0.032265 0.22578 0.02292 0.34068 0.080368 0.0336 0.0168 0.098278-0.0075 0.13578 0 0.069477 0.013895 0.12996 0.017674 0.19332 0.040066 0.034754 0.01228 0.082525-0.00901 0.11823 0 0.044834 0.011319 0.098279 0.050495 0.13342 0.057541 0.10442 0.020936 0.22044-0.00172 0.32509 0.019207 0.054613 0.010923 0.31875 0.014965 0.32966 0.020151 0.1074 0.051076 0.56065 0.049087 0.65719 0.016609 0.092376-0.031075 0.34364 0 0.4427 0h0.73213c0.08213 0 0.41905 0.021799 0.46127 0 0.00834-0.00431 0.010807-0.017638 0.019915-0.019915 0.10263-0.025658 0.21862 0.00577 0.32171-0.020151 0.079869-0.020085 0.19164 0 0.27173 0 0.26421 0 0.5518 0.031042 0.8088-0.019915 0.082608-0.016379 0.16085 0.00681 0.24134-0.019915 0.053022-0.017604 0.14524 0 0.20151 0h0.55636c0.070343 0 0.18433 0.017754 0.25622 0 0.23252-0.057424 0.49285-0.00539 0.73064-0.039358 0.061971-0.00885 0.13279-0.024266 0.19592-0.040066 0.11638-0.029124 0.48779 0 0.63759 0h0.99551c0.24496 0 0.49576 0.00991 0.73544-0.020151 0.2494-0.031282 0.59067 0 0.85264 0 0.09705 0 0.20255 0.013657 0.29235-0.019364 0.08266-0.030394 0.24225 0 0.3332 0h0.72851 0.41837c0.0066 0 0.01857-0.0065 0.01991 0 0.0065 0.031531 0 0.064389 0 0.096584"/>
  <path d="m5 5.7341c0.078342 0.015532-0.022708 0.068289-0.010548 0.09926 0.060995 0.15535 0.078068 0.82339 0 0.96946-0.020831 0.038978 0.021885 0.11329 0 0.15153-0.063582 0.11108-0.040066 0.53437-0.040066 0.67719 0 0.20655-0.040279 0.53903 0.019915 0.72032 0.034669 0.10442-0.013826 0.24825 0.040302 0.3565 0.015126 0.030253-0.00502 0.10475 0 0.13484 0.00934 0.056027 0.022229 0.1082 0.040066 0.16058 0.026984 0.079245 0 0.58756 0 0.69081 0 0.16953 0.021611 0.36174-0.019915 0.52243-0.022213 0.08596 0 0.2091 0 0.29817v0.81085c0 0.03921 0.00246-0.0095-0.019836 0.05628-0.011995 0.03541 0.011909 0.08294 0 0.11839-0.017955 0.05344-0.0266 0.10444-0.040302 0.15893-0.015003 0.05966 1.843e-4 0.11374-0.019915 0.17396-0.011146 0.03339 0 0.09772 0 0.13256 0 0.17511 0.03043 0.50701 0 0.65916-0.00945 0.04724-0.028551 0.09405-0.040302 0.14106-0.025661 0.10264 0.00562 0.21877-0.020151 0.32187-0.010311 0.04124 0 0.09624 0 0.14004 0 0.01052 3e-3 0.03708 0.010548 0.02975 0.049224-0.047763 0.079163-0.20301 0.1002-0.25802"/>
 </g>
 <g>
  <path d="m9.9981 4.969c-0.053975 0.039722-0.10795 0.074938-0.14843 0.11917-0.013494 0.015592 0 0.16565 0 0.18635 0 0.14987 0 0.30713 0.040481 0.44679 0.013494 0.037548-0.013494 0.088222 0 0.12659 0.026987 0.1377 0.053975 0.25051 0.053975 0.39804v0.85977c0 0.079923-0.026987 0.21073 0 0.28359 0 0.01 0.013494 0.012371 0.013494 0.022365 0.013494 0.045976-0.013494 0.1079 0 0.15376 0.013494 0.037962 0.026987 0.077998 0.040481 0.12214 0.013494 0.050505 0.013494 0.8066 0 0.86702-0.026987 0.099167-0.026987 0.20269-0.040481 0.30499-0.013494 0.056202-0.026987 0.104-0.040481 0.15656-0.026987 0.10387 0.026987 0.23939 0 0.34588-0.053975 0.26452-0.013494 0.71018-0.013494 0.99711v0.82753c0 0.10232-0.026987 0.2348 0 0.33356 0.013494 0.0584 0 0.12098 0.013494 0.17892 0.040481 0.14247 0.067469 0.28713 0.067469 0.43744v0.89847c0 0.09469 0.013494 0.31712 0 0.40503-0.026987 0.06619-0.040481 0.12484-0.040481 0.20173 0 0.14866 0.026987 0.24763 0.053975 0.39306 0 0.02184-0.013494 0.04571 0 0.06684 0 0.0156 0.013494 0.02769 0.013494 0.04412 0 0.0081-0.013494 0-0.013494 0" fill="#f00" stroke="#000" stroke-width="1.021px"/>
  <path d="m12 14c0.10363 0.06604 0.31909 0.01458 0.4678 0.04676 0.05313 0.0115 0.11492 0.01571 0.16003 0.03526 0.08894 0.03855 0.225-0.03275 0.31651 0 0.17275 0.06182 0.53173 0.01992 0.7315 0.01992 0.10214 0 0.4158-0.02731 0.49418 0 0.08897 0.03101 0.26997-0.01353 0.33462 0.01991 0.08275 0.04282 0.19776 0.04007 0.29731 0.04007 0.06924 0 0.39289 0.02862 0.44537 0 0.02856-0.01557 0.05045-0.03872 0.08423-0.05124 0.0056-0.0021 0.01692 0.0059 0.01787 0 0.0059-0.03642 0-0.07378 0-0.11067m-2.6829-6e-6v-0.01866" fill="#f00" stroke="#f00" stroke-width="1px"/>
  <path d="m13.261 12.551c0.01147 0.35475 0.0068 0.7102 0.0068 1.0653 0 0.11272-0.01575 0.23653 0.01991 0.34155 0.0278 0.08187-0.0082 0.18229 0.02015 0.26708 0.02917 0.08716 0 0.29241 0 0.39208v0.84178" fill="none" stroke="#f00" stroke-width="1px"/>
 </g>
</svg>
