/* XPM */
static const char *const tabular[] = {
/* columns rows colors chars-per-pixel */
"31 32 6 1",
"  c black",
". c red",
"X c #808080",
"o c #C0C0C0",
"O c #ECE9D8",
"+ c gray100",
/* pixels */
"OOO                           O",
"OOO ooooooooooooooooooooooooo X",
"                           oo X",
" +++++++++++++++++++++++++ Xo X",
" +..+.+++++.+.+..+++.+...+ Xo X",
" +.++.+++++...+.++++.++.++ Xo X",
" +..+..++++.+.+.++++..+.++ Xo X",
" +++++++++++++++++++++++++ Xo X",
" +++++++++++++++++++++++++ Xo X",
" +      +++      +++     + Xo X",
" +++++++++++++++++++++++++ Xo X",
" +      +++      +++     + Xo X",
" +++++++++++++++++++++++++ Xo X",
" +      +++      +++     + Xo X",
" +++++++++++++++++++++++++ Xo X",
" +      +++      +++     + Xo X",
" +++++++++++++++++++++++++ Xo X",
" +      +++      +++     + Xo X",
" +++++++++++++++++++++++++ Xo X",
" +      +++      +++     + Xo X",
" +++++++++++++++++++++++++ Xo X",
" +      +++      +++     + Xo X",
" +++++++++++++++++++++++++ Xo X",
" +      +++      +++     + Xo X",
" +++++++++++++++++++++++++ Xo X",
" +      +++      +++     + Xo X",
" +++++++++++++++++++++++++ Xo X",
" +      +++      +++     +    X",
" +++++++++++++++++++++++++ XXXX",
" +++++++++++++++++++++++++ XOOO",
"                           XOOO",
"OOXXXXXXXXXXXXXXXXXXXXXXXXXXOOO"
};
