<?xml version="1.0" encoding="UTF-8"?>
<svg width="16" height="16" version="1.1" xmlns="http://www.w3.org/2000/svg" xmlns:xlink="http://www.w3.org/1999/xlink">
 <defs>
  <linearGradient id="linearGradient14" x1="2" x2="22" y1="6" y2="6" gradientTransform="scale(2 .5)" gradientUnits="userSpaceOnUse" xlink:href="#b"/>
  <linearGradient id="linearGradient15" x1="1.834" x2="1.834" y1="50.163" y2="9.8145" gradientTransform="scale(1.0905 .91701)" gradientUnits="userSpaceOnUse" xlink:href="#a"/>
 </defs>
 <linearGradient id="a" x2="0" y1="1">
  <stop stop-color="#ececec" offset="0"/>
  <stop stop-color="#fff" offset="1"/>
 </linearGradient>
 <linearGradient id="b">
  <stop stop-color="#d9d9d9" offset="0"/>
  <stop stop-color="#eee" offset="1"/>
 </linearGradient>
 <linearGradient id="c" x1="1.5954" x2="5.9829" y1="6.8946" y2="6.8946" gradientTransform="scale(1.2536 .79772)" gradientUnits="userSpaceOnUse" xlink:href="#a"/>
 <linearGradient id="d" x1="36.695" x2="32.308" y1="6.8946" y2="6.8946" gradientTransform="scale(1.2536 .79772)" gradientUnits="userSpaceOnUse" xlink:href="#a"/>
 <linearGradient id="e" x1="52.59" x2="48.407" y1="2.51" y2="2.51" gradientTransform="scale(.83666 1.1952)" gradientUnits="userSpaceOnUse" xlink:href="#b"/>
 <linearGradient id="f" x1="11.11" x2="20.831" y1="1.0801" y2="1.0801" gradientTransform="scale(.36004 2.7775)" gradientUnits="userSpaceOnUse" xlink:href="#b"/>
 <linearGradient id="g" x1="9.5235" x2="9.5235" y1="19.085" y2="2.4193" gradientTransform="scale(1.344 .74402)" gradientUnits="userSpaceOnUse">
  <stop stop-color="#e6e6e6" offset="0"/>
  <stop stop-color="#fff" offset="1"/>
 </linearGradient>
 <clipPath id="h">
  <path d="m2 9h44v37h-44z"/>
 </clipPath>
 <path d="m4 3h40v10h-40z" fill="url(#linearGradient14)"/>
 <path d="m4 3v27l3.5-24.5z" fill="url(#f)"/>
 <path d="m44 3v5l-3.5-2.5z" fill="url(#e)"/>
 <path d="m7.5 5.5 7.7 5.5h-11.2z" opacity=".08"/>
 <rect x="2" y="6" width="44" height="40" rx="3" clip-path="url(#h)" fill="url(#linearGradient15)"/>
 <path d="m46 9h-5.5v-3.5z" fill="url(#d)"/>
 <path d="m7.5 5.5-5.5 3.5h5.5z" fill="url(#c)"/>
 <circle cx="14" cy="14" r="2" opacity=".3"/>
 <circle cx="34" cy="14" r="2" opacity=".3"/>
 <path d="m34 13a10 10 0 1 0-20 0" fill="none" stroke="url(#g)" stroke-linecap="round" stroke-width="2.4"/>
 <path d="m32.555 27.586c-0.02722-0.24202-0.30942-0.42389-0.55344-0.42389-0.78893 0-1.489-0.46323-1.7826-1.1796-0.29994-0.73376-0.10654-1.5895 0.48143-2.1288 0.18508-0.16919 0.20756-0.4524 0.05234-0.64913-0.40379-0.51274-0.86273-0.97591-1.3638-1.3773-0.19622-0.15746-0.48412-0.13555-0.65427 0.05285-0.51314 0.56829-1.4349 0.7795-2.1471 0.48232-0.74121-0.31178-1.2086-1.0628-1.1629-1.869 0.01506-0.25323-0.17002-0.47341-0.42249-0.50282-0.64306-0.07438-1.2918-0.07669-1.9367-0.0052-0.24959 0.02755-0.43467 0.24254-0.42627 0.49257 0.02806 0.79827-0.44498 1.5362-1.1788 1.8368-0.70373 0.28744-1.619 0.07802-2.1311-0.4852-0.16925-0.18552-0.45248-0.20833-0.64966-0.05465-0.51596 0.4048-0.98522 0.86835-1.3927 1.3769-0.15894 0.19769-0.13556 0.48424 0.05138 0.65432 0.59918 0.5426 0.79265 1.4058 0.48137 2.148-0.29719 0.70762-1.032 1.1637-1.8732 1.1637-0.27297-0.0088-0.4674 0.17444-0.49726 0.42261-0.07572 0.64676-0.07662 1.3058-0.0037 1.9578 0.02703 0.24305 0.31781 0.42332 0.56452 0.42332 0.74966-0.01915 1.4694 0.44497 1.7713 1.1797 0.30097 0.73376 0.1075 1.589-0.48137 2.1288-0.18418 0.16919-0.20756 0.45195-0.05234 0.64868 0.40001 0.50948 0.85902 0.97309 1.3619 1.3778 0.19725 0.15894 0.48425 0.13652 0.65523-0.05189 0.51506-0.5697 1.4367-0.78052 2.1462-0.48276 0.74306 0.31082 1.2105 1.0618 1.1647 1.8685-0.01492 0.25336 0.17105 0.47392 0.42249 0.50288 0.32896 0.03838 0.65991 0.05752 0.99176 0.05752 0.315 0 0.63006-0.01729 0.94505-0.05234 0.24965-0.02755 0.4346-0.24254 0.42621-0.49301-0.02889-0.79782 0.44498-1.5357 1.1779-1.8358 0.70847-0.28936 1.6199-0.07758 2.1321 0.48507 0.17021 0.18514 0.45145 0.2075 0.64972 0.05432 0.515-0.40384 0.9833-0.867 1.3927-1.3769 0.15888-0.19724 0.13645-0.48424-0.05144-0.65426-0.59918-0.5426-0.79361-1.4059-0.48233-2.1476 0.29264-0.6982 1.0001-1.167 1.7611-1.167l0.10647 0.0028c0.24683 0.02005 0.47394-0.17008 0.50385-0.42204 0.07585-0.64734 0.07675-1.3058 0.0038-1.9578zm-8.5412 3.8456c-1.5835 0-2.8715-1.288-2.8715-2.8715 0-1.5834 1.288-2.8715 2.8715-2.8715 1.5834 0 2.8715 1.2881 2.8715 2.8715 0 1.5835-1.288 2.8715-2.8715 2.8715z" opacity=".8"/>
</svg>
